<?xml version="1.0" encoding="UTF-8"?>
<svg width="154px" height="24px" viewBox="0 0 154 24" version="1.1" xmlns="http://www.w3.org/2000/svg" xmlns:xlink="http://www.w3.org/1999/xlink">
    <!-- Generator: Sketch 47.1 (45422) - http://www.bohemiancoding.com/sketch -->
    <title>logos/aquagis</title>
    <desc>Created with Sketch.</desc>
    <defs></defs>
    <g id="Symbols" stroke="none" stroke-width="1" fill="none" fill-rule="evenodd">
        <g id="layout/parts/cabecera" transform="translate(-23.000000, -19.000000)" fill="#FFFFFF">
            <path d="M34.538,19.85 L41.864,38 L37.42,38 L36.078,34.37 L29.17,34.37 L27.828,38 L23.384,38 L30.71,19.85 L34.538,19.85 Z M34.67,30.74 L32.646,25.46 L32.602,25.46 L30.578,30.74 L34.67,30.74 Z M54.3199999,41.806 L53.3299999,40.31 C53.3740001,40.251333 53.4326662,40.1780004 53.5059999,40.09 C53.5793336,40.0019996 53.7333321,39.8370012 53.9679999,39.595 C54.2026678,39.3529988 54.4299988,39.1403342 54.6499999,38.957 C54.870001,38.7736657 55.1266651,38.6086674 55.4199999,38.462 C55.7133347,38.3153326 55.9846653,38.242 56.2339999,38.242 L56.2339999,38.154 C54.0926559,37.7433313 52.3656732,36.6873418 51.0529999,34.986 C49.7403267,33.2846582 49.0839999,31.2606784 49.0839999,28.914 C49.0839999,26.2739868 49.9639911,24.0483424 51.7239999,22.237 C53.4840087,20.4256576 55.6179874,19.52 58.1259999,19.52 C60.6486792,19.52 62.7826579,20.4256576 64.5279999,22.237 C66.273342,24.0483424 67.1459999,26.2739868 67.1459999,28.914 C67.1459999,31.0700108 66.5666724,32.9693251 65.4079999,34.612 C64.2493275,36.2546749 62.7240094,37.3619971 60.8319999,37.934 L60.8319999,38.022 C60.9200004,38.022 61.3086631,38.091666 61.9979999,38.231 C62.6873367,38.370334 63.2373312,38.44 63.6479999,38.44 C64.205336,38.44 64.711331,38.341001 65.1659999,38.143 C65.6206689,37.944999 65.935999,37.7506676 66.1119999,37.56 L66.3759999,37.252 L67.6739999,40.046 C67.6446664,40.1193337 67.5970003,40.2109995 67.5309999,40.321 C67.4649996,40.4310006 67.3146678,40.6253319 67.0799999,40.904 C66.8453321,41.1826681 66.5850014,41.4319989 66.2989999,41.652 C66.0129985,41.8720011 65.631669,42.0699991 65.1549999,42.246 C64.6783309,42.4220009 64.1686693,42.51 63.6259999,42.51 C62.7313288,42.51 61.638673,42.2240029 60.3479999,41.652 C59.0573268,41.0799971 57.9426713,40.794 57.0039999,40.794 C56.490664,40.794 56.0103355,40.8783325 55.5629999,41.047 C55.1156644,41.2156675 54.7966675,41.3879991 54.6059999,41.564 L54.3199999,41.806 Z M53.5499999,28.914 C53.5499999,29.6180035 53.6306658,30.2743303 53.7919999,30.883 C53.9533341,31.4916697 54.2063315,32.0453308 54.5509999,32.544 C54.8956683,33.0426692 55.3723302,33.4349986 55.9809999,33.721 C56.5896696,34.0070014 57.3046625,34.15 58.1259999,34.15 C59.6660076,34.15 60.8099962,33.6513383 61.5579999,32.654 C62.3060037,31.6566617 62.6799999,30.4100075 62.6799999,28.914 C62.6799999,27.4326593 62.2986704,26.1896717 61.5359999,25.185 C60.7733294,24.1803283 59.6366741,23.678 58.1259999,23.678 C56.6299924,23.678 55.4933371,24.1839949 54.7159999,25.196 C53.9386627,26.2080051 53.5499999,27.447326 53.5499999,28.914 Z M90.2499998,19.85 L90.2499998,31.554 C90.2499998,33.7833445 89.6486725,35.4699943 88.4459998,36.614 C87.2433272,37.7580057 85.4833448,38.33 83.1659998,38.33 C80.8486549,38.33 79.0886725,37.7580057 77.8859998,36.614 C76.6833272,35.4699943 76.0819998,33.7833445 76.0819998,31.554 L76.0819998,19.85 L80.2179998,19.85 L80.2179998,30.344 C80.2179998,31.810674 80.4489975,32.8299971 80.9109998,33.402 C81.3730022,33.9740029 82.1246613,34.26 83.1659998,34.26 C84.2073384,34.26 84.9589975,33.9740029 85.4209998,33.402 C85.8830022,32.8299971 86.1139998,31.810674 86.1139998,30.344 L86.1139998,19.85 L90.2499998,19.85 Z M109.218,19.85 L116.544,38 L112.1,38 L110.758,34.37 L103.85,34.37 L102.508,38 L98.0639998,38 L105.39,19.85 L109.218,19.85 Z M109.35,30.74 L107.326,25.46 L107.282,25.46 L105.258,30.74 L109.35,30.74 Z M140.99,27.836 L140.99,31.774 C140.520664,33.9300108 139.494008,35.5616611 137.91,36.669 C136.325992,37.7763389 134.558676,38.33 132.608,38.33 C130.158654,38.33 128.072342,37.4133425 126.349,35.58 C124.625658,33.7466575 123.764,31.532013 123.764,28.936 C123.764,26.2959868 124.607325,24.0666758 126.294,22.248 C127.980675,20.4293242 130.08532,19.52 132.608,19.52 C135.556014,19.52 137.887991,20.5539897 139.604,22.622 L136.898,25.592 C135.929995,24.0373256 134.580675,23.26 132.85,23.26 C131.573993,23.26 130.485004,23.8136611 129.583,24.921 C128.680995,26.0283389 128.23,27.3666588 128.23,28.936 C128.23,30.4760077 128.680995,31.7923279 129.583,32.885 C130.485004,33.9776721 131.573993,34.524 132.85,34.524 C133.906005,34.524 134.826329,34.2050032 135.611,33.567 C136.39567,32.9289968 136.788,32.0820053 136.788,31.026 L132.608,31.026 L132.608,27.836 L140.99,27.836 Z M154.282,19.85 L154.282,38 L150.146,38 L150.146,19.85 L154.282,19.85 Z M170.5,19.52 C171.482671,19.52 172.443328,19.6629986 173.382,19.949 C174.320671,20.2350014 175.017331,20.5173319 175.472,20.796 L176.132,21.236 L174.46,24.536 C174.327999,24.4479996 174.144667,24.334334 173.91,24.195 C173.675332,24.055666 173.235336,23.8686678 172.59,23.634 C171.944663,23.3993322 171.343336,23.282 170.786,23.282 C170.096663,23.282 169.565001,23.4286652 169.191,23.722 C168.816998,24.0153348 168.63,24.4113308 168.63,24.91 C168.63,25.1593346 168.717999,25.3903323 168.894,25.603 C169.07,25.8156677 169.370664,26.0429988 169.796,26.285 C170.221335,26.5270012 170.595331,26.7213326 170.918,26.868 C171.240668,27.0146674 171.73933,27.2346652 172.414,27.528 C173.587339,28.0266692 174.588329,28.7049957 175.417,29.563 C176.24567,30.4210043 176.66,31.3926612 176.66,32.478 C176.66,33.5193385 176.473001,34.4286628 176.099,35.206 C175.724998,35.9833372 175.211669,36.5919978 174.559,37.032 C173.90633,37.4720022 173.184004,37.7983323 172.392,38.011 C171.599996,38.2236677 170.742004,38.33 169.818,38.33 C169.025996,38.33 168.24867,38.2493341 167.486,38.088 C166.723329,37.9266659 166.085335,37.7250012 165.572,37.483 C165.058664,37.2409988 164.596668,37.0026678 164.186,36.768 C163.775331,36.5333322 163.474667,36.3353341 163.284,36.174 L162.998,35.932 L165.066,32.456 C165.242,32.6026674 165.483998,32.7896655 165.792,33.017 C166.100001,33.2443345 166.646329,33.5486648 167.431,33.93 C168.21567,34.3113352 168.908663,34.502 169.51,34.502 C171.255342,34.502 172.128,33.9080059 172.128,32.72 C172.128,32.4706654 172.065667,32.2396677 171.941,32.027 C171.816332,31.8143323 171.596334,31.6016677 171.281,31.389 C170.965665,31.1763323 170.687001,31.0076673 170.445,30.883 C170.202998,30.7583327 169.807002,30.567668 169.257,30.311 C168.706997,30.054332 168.300001,29.8600007 168.036,29.728 C166.935994,29.1853306 166.085336,28.5070041 165.484,27.693 C164.882663,26.8789959 164.582,26.0026714 164.582,25.064 C164.582,23.4359919 165.183327,22.1050052 166.386,21.071 C167.588672,20.0369948 168.959992,19.52 170.5,19.52 Z" id="logos/aquagis"></path>
        </g>
    </g>
</svg>