<?xml version="1.0" encoding="UTF-8"?>
<svg width="24px" height="24px" viewBox="0 0 24 24" version="1.1" xmlns="http://www.w3.org/2000/svg" xmlns:xlink="http://www.w3.org/1999/xlink">
    <!-- Generator: Sketch 48.2 (47327) - http://www.bohemiancoding.com/sketch -->
    <title>cartografia/abastecimiento</title>
    <desc>Created with Sketch.</desc>
    <defs>
        <circle id="path-1" cx="12" cy="12" r="12"></circle>
        <polygon id="path-2" points="0.000203993193 0 11.4154286 0 11.4154286 7.026 0.000203993193 7.026"></polygon>
        <polygon id="path-4" points="0.497199383 0.629485714 2.94796422 0.629485714 2.94796422 5.14285714 0.497199383 5.14285714"></polygon>
    </defs>
    <g id="Symbols" stroke="none" stroke-width="1" fill="none" fill-rule="evenodd">
        <g id="cartografia/abastecimiento">
            <g id="Oval-8">
                <use fill="#45AAB0" fill-rule="evenodd" xlink:href="#path-1"></use>
                <circle stroke="#DDDDDF" stroke-width="1" cx="12" cy="12" r="11.5"></circle>
            </g>
            <g id="icons/negative/abastecimiento" transform="translate(2.000000, 2.000000)">
                <g id="Page-1" transform="translate(4.000000, 4.000000)">
                    <g id="Group-3">
                        <mask id="mask-3" fill="white">
                            <use xlink:href="#path-2"></use>
                        </mask>
                        <g id="Clip-2"></g>
                        <path d="M3.08348571,0 C2.96177143,0.0591428571 2.8272,0.102 2.72005714,0.182571429 C2.31377143,0.486 2.3652,1.15114286 2.80234286,1.41257143 C3.09205714,1.58485714 3.49234286,1.55142857 3.73834286,1.28228571 C3.77348571,1.24371429 3.84205714,1.21628571 3.8952,1.21542857 C4.53034286,1.21114286 5.16634286,1.21457143 5.80234286,1.21114286 C5.87262857,1.21028571 5.9232,1.23 5.96948571,1.28057143 C6.00377143,1.31828571 6.04748571,1.34571429 6.08434286,1.38085714 C6.10234286,1.39714286 6.12462857,1.42028571 6.12548571,1.44 C6.12891429,1.596 6.1272,1.75114286 6.1272,1.91914286 L6.01405714,1.91914286 C5.73634286,1.91914286 5.45862857,1.91828571 5.18091429,1.91914286 C4.89634286,1.92171429 4.73177143,2.07857143 4.7232,2.36057143 C4.71634286,2.58085714 4.7112,2.80114286 4.71377143,3.02228571 C4.71548571,3.10714286 4.68891429,3.12771429 4.60491429,3.12771429 C3.81291429,3.12514286 3.02005714,3.12771429 2.22805714,3.126 C1.85348571,3.12428571 1.49605714,3.19114286 1.16862857,3.37714286 C0.593485714,3.70371429 0.272914286,4.18885714 0.268628571,4.86171429 C0.264342857,5.28942857 0.266914286,5.718 0.268628571,6.14657143 C0.268628571,6.204 0.252342857,6.23914286 0.200914286,6.26828571 C0.0397714286,6.36257143 -0.0262285714,6.51685714 0.00977142857,6.69942857 C0.0432,6.86828571 0.174342857,6.99257143 0.350057143,7.01914286 C0.384342857,7.02514286 0.419485714,7.026 0.454628571,7.026 L2.92748571,7.026 C3.1212,7.026 3.26862857,6.94971429 3.34748571,6.76714286 C3.41434286,6.61285714 3.37148571,6.43457143 3.2472,6.31971429 C3.22662857,6.30085714 3.19834286,6.26657143 3.20348571,6.246 C3.24034286,6.09514286 3.26777143,5.93914286 3.32948571,5.79857143 C3.38777143,5.66657143 3.51805714,5.59885714 3.66548571,5.59628571 C4.03577143,5.59028571 4.40605714,5.598 4.7772,5.58257143 C4.92977143,5.57742857 5.00348571,5.63228571 5.07977143,5.76085714 C5.36091429,6.23828571 5.77748571,6.51857143 6.33548571,6.57942857 C6.59348571,6.60857143 6.84548571,6.58971429 7.08977143,6.50142857 C7.4712,6.36428571 7.72491429,6.08228571 7.91262857,5.73771429 C7.97262857,5.62457143 8.03777143,5.58257143 8.16891429,5.58342857 C9.20691429,5.58942857 10.2457714,5.58685714 11.2837714,5.58685714 L11.4157714,5.58685714 L11.4157714,3.12685714 L11.2957714,3.12685714 C10.3503429,3.12685714 9.40405714,3.126 8.45862857,3.12857143 C8.36777143,3.12942857 8.33691429,3.10628571 8.33948571,3.01285714 C8.3472,2.81142857 8.33348571,2.61 8.34462857,2.40857143 C8.36348571,2.064 8.11405714,1.90885714 7.85691429,1.91657143 C7.56891429,1.92685714 7.28177143,1.91914286 6.99377143,1.91914286 L6.87977143,1.91914286 C6.87977143,1.75285714 6.87891429,1.59857143 6.88148571,1.44257143 C6.88148571,1.42371429 6.89862857,1.40142857 6.9132,1.38771429 C6.9672,1.33885714 7.0212,1.28914286 7.08034286,1.24628571 C7.10605714,1.22742857 7.14291429,1.21457143 7.17462857,1.21457143 C7.9032,1.212 8.63177143,1.212 9.35948571,1.21542857 C9.40148571,1.21542857 9.45377143,1.24285714 9.4812,1.27457143 C9.85748571,1.70314286 10.5903429,1.55571429 10.7583429,0.960857143 C10.8612,0.6 10.6546286,0.186857143 10.3014857,0.0565714286 C10.2474857,0.0377142857 10.1934857,0.0188571429 10.1394857,0 L9.90977143,0 C9.73577143,0.0642857143 9.56691429,0.134571429 9.44862857,0.290571429 C9.43148571,0.312857143 9.38777143,0.322285714 9.3552,0.323142857 C8.62834286,0.324857143 7.90062857,0.324 7.17377143,0.323142857 C7.14462857,0.323142857 7.10262857,0.317142857 7.0872,0.297428571 C6.96977143,0.142285714 6.80262857,0.0685714286 6.63034286,0 L6.38091429,0 C6.2052,0.0677142857 6.03548571,0.144857143 5.91548571,0.300857143 C5.90177143,0.318857143 5.86405714,0.323142857 5.83748571,0.323142857 C5.18005714,0.324 4.52434286,0.324 3.86777143,0.322285714 C3.83605714,0.322285714 3.7932,0.311142857 3.7752,0.288 C3.65605714,0.134571429 3.48805714,0.0617142857 3.3132,0 L3.08348571,0 Z" id="Fill-1" fill="#FFFFFF" mask="url(#mask-3)"></path>
                    </g>
                    <g id="Group-6" transform="translate(0.000000, 6.857143)">
                        <mask id="mask-5" fill="white">
                            <use xlink:href="#path-4"></use>
                        </mask>
                        <g id="Clip-5"></g>
                        <path d="M1.71334286,0.629485714 C1.52648571,1.06148571 1.34134286,1.4712 1.17162857,1.88777143 C0.965914286,2.39605714 0.777342857,2.9112 0.5742,3.42034286 C0.359914286,3.9552 0.605914286,4.72577143 1.1502,5.00177143 C1.5882,5.22377143 2.09562857,5.18434286 2.47362857,4.88005714 C2.83105714,4.59205714 2.95534286,4.19691429 2.94762857,3.75891429 C2.94505714,3.61662857 2.89448571,3.4692 2.8422,3.33291429 C2.59191429,2.68062857 2.3382,2.03005714 2.07762857,1.38205714 C1.98248571,1.14634286 1.86248571,0.920057143 1.75448571,0.688628571 C1.74762857,0.674914286 1.73734286,0.662914286 1.71334286,0.629485714" id="Fill-4" fill="#FFFFFF" mask="url(#mask-5)"></path>
                    </g>
                </g>
            </g>
        </g>
    </g>
</svg>