<?xml version="1.0" encoding="UTF-8"?>
<svg width="24px" height="24px" viewBox="0 0 24 24" version="1.1" xmlns="http://www.w3.org/2000/svg" xmlns:xlink="http://www.w3.org/1999/xlink">
    <!-- Generator: Sketch 48.2 (47327) - http://www.bohemiancoding.com/sketch -->
    <title>cartografia/acometida</title>
    <desc>Created with Sketch.</desc>
    <defs></defs>
    <g id="Symbols" stroke="none" stroke-width="1" fill="none" fill-rule="evenodd">
        <g id="cartografia/acometida">
            <circle id="Oval-8" fill="#3561BA" cx="12" cy="12" r="12"></circle>
            <g id="icons/negative/acometida" transform="translate(2.000000, 2.000000)" fill="#FFFFFF">
                <path d="M14,13 L6,13 L6,14 L5,14 L5,8 L6,8 L6,9 L7,9 C7,8.448 7.448,8 8,8 L8,6 L7.5,6 C7.224,6 7,5.776 7,5.5 C7,5.224 7.224,5 7.5,5 L12.5,5 C12.776,5 13,5.224 13,5.5 C13,5.776 12.776,6 12.5,6 L12,6 L12,8 C12.552,8 13,8.448 13,9 L14,9 L14,8 L15,8 L15,14 L14,14 L14,13 Z M10.3933007,9.21790283 C10.3686257,9.1864784 10.3402731,9.15812482 10.3088494,9.13344878 C10.0916668,8.96290168 9.77734976,9.00070724 9.60680265,9.21788988 L8.05722277,11.1911972 C7.98806025,11.2792719 7.95046672,11.3880151 7.95046672,11.5 C7.95046672,11.7761424 8.17432434,12 8.45046672,12 L11.5495214,12 C11.6615007,12 11.7702387,11.9624103 11.8583113,11.8932541 C12.0754995,11.7227142 12.1133155,11.4083984 11.9427755,11.1912101 L10.3933007,9.21790283 Z" id="Combined-Shape"></path>
                <path d="M16.5,15 C16.224,15 16,14.776 16,14.5 L16,7.5 C16,7.224 16.224,7 16.5,7 C16.776,7 17,7.224 17,7.5 L17,14.5 C17,14.776 16.776,15 16.5,15" id="Fill-2"></path>
                <path d="M3.5,15 C3.224,15 3,14.776 3,14.5 L3,7.5 C3,7.224 3.224,7 3.5,7 C3.776,7 4,7.224 4,7.5 L4,14.5 C4,14.776 3.776,15 3.5,15" id="Fill-6"></path>
            </g>
            <path d="M12,23 C18.0751322,23 23,18.0751322 23,12 C23,5.92486775 18.0751322,1 12,1 C5.92486775,1 1,5.92486775 1,12 C1,18.0751322 5.92486775,23 12,23 Z M12,24 C5.372583,24 0,18.627417 0,12 C0,5.372583 5.372583,0 12,0 C18.627417,0 24,5.372583 24,12 C24,18.627417 18.627417,24 12,24 Z" id="Oval" fill="#FFFFFF" fill-rule="nonzero"></path>
        </g>
    </g>
</svg>