<?xml version="1.0" encoding="UTF-8"?>
<svg width="24px" height="24px" viewBox="0 0 24 24" version="1.1" xmlns="http://www.w3.org/2000/svg" xmlns:xlink="http://www.w3.org/1999/xlink">
    <!-- Generator: Sketch 48.2 (47327) - http://www.bohemiancoding.com/sketch -->
    <title>cartografia/bomba-warning</title>
    <desc>Created with Sketch.</desc>
    <defs>
        <circle id="path-1" cx="12" cy="12" r="12"></circle>
    </defs>
    <g id="Symbols" stroke="none" stroke-width="1" fill="none" fill-rule="evenodd">
        <g id="cartografia/bomba-warning">
            <g id="Group">
                <g id="Oval-8">
                    <use fill="#F8B71C" fill-rule="evenodd" xlink:href="#path-1"></use>
                    <circle stroke="#DDDDDF" stroke-width="1" cx="12" cy="12" r="11.5"></circle>
                </g>
            </g>
            <g id="icons/negative/bomba" transform="translate(2.000000, 2.000000)" fill="#FFFFFF">
                <path d="M7,13 L6,13 C5.448,13 5,12.552 5,12 L5,7 C5,6.448 5.448,6 6,6 L7,6 L7,13 Z" id="Fill-1"></path>
                <polygon id="Fill-3" points="14 6 16 7 16 12 14 13"></polygon>
                <polygon id="Fill-5" points="7 7 14 7 14 6 7 6"></polygon>
                <polygon id="Fill-7" points="7 9 14 9 14 8 7 8"></polygon>
                <polygon id="Fill-8" points="7 11 14 11 14 10 7 10"></polygon>
                <polygon id="Fill-9" points="7 13 14 13 14 12 7 12"></polygon>
                <polygon id="Fill-10" points="4 12 5 12 5 7 4 7"></polygon>
                <polygon id="Fill-11" points="2 10 4 10 4 9 2 9"></polygon>
                <polygon id="Fill-12" points="11 4 8 4 8 6 12 6 12 5"></polygon>
                <polygon id="Fill-13" points="8 14 12 14 12 13 8 13"></polygon>
                <polygon id="Fill-14" points="7 16 13 16 13 15 7 15"></polygon>
            </g>
        </g>
    </g>
</svg>