<?xml version="1.0" encoding="UTF-8"?>
<svg width="24px" height="24px" viewBox="0 0 24 24" version="1.1" xmlns="http://www.w3.org/2000/svg" xmlns:xlink="http://www.w3.org/1999/xlink">
    <!-- Generator: Sketch 47.1 (45422) - http://www.bohemiancoding.com/sketch -->
    <title>cartografia/comercial</title>
    <desc>Created with Sketch.</desc>
    <defs>
        <circle id="path-1" cx="12" cy="12" r="12"></circle>
    </defs>
    <g id="Symbols" stroke="none" stroke-width="1" fill="none" fill-rule="evenodd">
        <g id="cartografia/comercial">
            <g id="Oval-3">
                <use fill="#96C147" fill-rule="evenodd" xlink:href="#path-1"></use>
                <circle stroke="#F2F2F4" stroke-width="1" cx="12" cy="12" r="11.5"></circle>
            </g>
            <g id="Group" transform="translate(5.000000, 6.000000)">
                <rect id="Rectangle-9-Copy" stroke="#FFFFFF" stroke-width="2" x="2.71428571" y="4.42857143" width="8.28571429" height="6.14285714"></rect>
                <path d="M7,10.8571429 L7,7" id="Path-5-Copy" stroke="#FFFFFF" stroke-width="2"></path>
                <path d="M0,1.71428571 L1.71428571,1.71428571 L1.71428571,4.28571429 L1.71428571,4.28571429 C1.71428571,4.75910121 1.33052979,5.14285714 0.857142857,5.14285714 L0.857142857,5.14285714 L0.857142857,5.14285714 C0.383755929,5.14285714 5.79731787e-17,4.75910121 0,4.28571429 L0,1.71428571 Z M1.71428571,1.71428571 L3.42857143,1.71428571 L3.42857143,4.28571429 L3.42857143,4.28571429 C3.42857143,4.75910121 3.0448155,5.14285714 2.57142857,5.14285714 L2.57142857,5.14285714 L2.57142857,5.14285714 C2.09804164,5.14285714 1.71428571,4.75910121 1.71428571,4.28571429 L1.71428571,1.71428571 Z M3.42857143,1.71428571 L5.14285714,1.71428571 L5.14285714,4.28571429 L5.14285714,4.28571429 C5.14285714,4.75910121 4.75910121,5.14285714 4.28571429,5.14285714 L4.28571429,5.14285714 C3.81232736,5.14285714 3.42857143,4.75910121 3.42857143,4.28571429 L3.42857143,1.71428571 Z M5.14285714,1.71428571 L6.85714286,1.71428571 L6.85714286,4.28571429 C6.85714286,4.75910121 6.47338693,5.14285714 6,5.14285714 C5.52661307,5.14285714 5.14285714,4.75910121 5.14285714,4.28571429 L5.14285714,1.71428571 Z M6.85714286,1.71428571 L8.57142857,1.71428571 L8.57142857,4.28571429 C8.57142857,4.75910121 8.18767264,5.14285714 7.71428571,5.14285714 C7.24089879,5.14285714 6.85714286,4.75910121 6.85714286,4.28571429 L6.85714286,1.71428571 Z M8.57142857,1.71428571 L10.2857143,1.71428571 L10.2857143,4.28571429 L10.2857143,4.28571429 C10.2857143,4.75910121 9.90195836,5.14285714 9.42857143,5.14285714 L9.42857143,5.14285714 C8.9551845,5.14285714 8.57142857,4.75910121 8.57142857,4.28571429 L8.57142857,1.71428571 Z M10.2857143,1.71428571 L12,1.71428571 L12,4.28571429 C12,4.75910121 11.6162441,5.14285714 11.1428571,5.14285714 L11.1428571,5.14285714 C10.6694702,5.14285714 10.2857143,4.75910121 10.2857143,4.28571429 L10.2857143,1.71428571 Z M12,1.71428571 L13.7142857,1.71428571 L13.7142857,4.28571429 L13.7142857,4.28571429 C13.7142857,4.75910121 13.3305298,5.14285714 12.8571429,5.14285714 C12.3837559,5.14285714 12,4.75910121 12,4.28571429 L12,1.71428571 Z M1.71428571,0 L12,0 L13.7142857,1.71428571 L0,1.71428571 L1.71428571,0 Z" id="Combined-Shape-Copy" fill="#FFFFFF"></path>
            </g>
        </g>
    </g>
</svg>