<?xml version="1.0" encoding="UTF-8"?>
<svg width="24px" height="24px" viewBox="0 0 24 24" version="1.1" xmlns="http://www.w3.org/2000/svg" xmlns:xlink="http://www.w3.org/1999/xlink">
    <!-- Generator: Sketch 48.2 (47327) - http://www.bohemiancoding.com/sketch -->
    <title>cartografia/deposito</title>
    <desc>Created with Sketch.</desc>
    <defs></defs>
    <g id="Symbols" stroke="none" stroke-width="1" fill="none" fill-rule="evenodd">
        <g id="cartografia/deposito">
            <circle id="Oval-3-Copy" fill="#68BEE2" cx="12" cy="12" r="11"></circle>
            <g id="icons/negative/deposito" transform="translate(2.000000, 2.000000)" fill="#FFFFFF">
                <g id="Page-1" transform="translate(5.000000, 3.000000)">
                    <path d="M6.6665625,11.66625 L4.6875,12.65625 L2.7084375,11.66625 L2.8125,11.25 L6.5625,11.25 L6.6665625,11.66625 Z M5.625,13.125 L6.8746875,12.4996875 L7.231875,13.9284375 L5.625,13.125 Z M2.143125,13.9284375 L2.5003125,12.4996875 L3.75,13.125 L2.143125,13.9284375 Z M3.28125,7.265625 C3.530625,6.6421875 3.7603125,6.01125 4.0134375,5.3878125 C4.220625,4.87875 4.4475,4.37625 4.67625,3.8475 C4.7053125,3.88875 4.7184375,3.9028125 4.7259375,3.920625 C4.8590625,4.2028125 5.0053125,4.4803125 5.1215625,4.7690625 C5.44125,5.563125 5.7525,6.36 6.058125,7.15875 C6.121875,7.325625 6.1846875,7.505625 6.1875,7.6790625 C6.196875,8.21625 6.045,8.7 5.6071875,9.0525 C5.145,9.4246875 4.5234375,9.4734375 3.98625,9.2015625 C3.3196875,8.8640625 3.01875,7.9209375 3.28125,7.265625 Z M9.375,4.6875 L9.375,3.75 L8.4375,3.75 L4.6875,0 L0.9375,3.75 L0,3.75 L0,4.6875 L0.9375,4.6875 L0.9375,10.3125 L0,10.3125 L0,11.25 L0.9375,11.25 L1.875,11.25 L0.9375,15 L1.875,15 L4.6875,13.59375 L7.5,15 L8.4375,15 L7.5,11.25 L8.4375,11.25 L9.375,11.25 L9.375,10.3125 L8.4375,10.3125 L8.4375,4.6875 L9.375,4.6875 Z" id="Fill-1"></path>
                </g>
            </g>
            <path d="M12,23 C18.0751322,23 23,18.0751322 23,12 C23,5.92486775 18.0751322,1 12,1 C5.92486775,1 1,5.92486775 1,12 C1,18.0751322 5.92486775,23 12,23 Z M12,24 C5.372583,24 0,18.627417 0,12 C0,5.372583 5.372583,0 12,0 C18.627417,0 24,5.372583 24,12 C24,18.627417 18.627417,24 12,24 Z" id="Oval" fill="#FFFFFF" fill-rule="nonzero"></path>
        </g>
    </g>
</svg>