<?xml version="1.0" encoding="UTF-8"?>
<svg width="24px" height="24px" viewBox="0 0 24 24" version="1.1" xmlns="http://www.w3.org/2000/svg" xmlns:xlink="http://www.w3.org/1999/xlink">
    <!-- Generator: Sketch 48.2 (47327) - http://www.bohemiancoding.com/sketch -->
    <title>cartografia/domestico</title>
    <desc>Created with Sketch.</desc>
    <defs></defs>
    <g id="Symbols" stroke="none" stroke-width="1" fill="none" fill-rule="evenodd">
        <g id="cartografia/domestico">
            <circle id="Oval-3" fill="#CB727E" cx="12" cy="12" r="11"></circle>
            <g id="Group" transform="translate(5.000000, 5.000000)" fill="#FFFFFF" fill-rule="nonzero">
                <path d="M3.69503264,5.58513243 L3.76830518,11.1538462 L6,11.1538462 L6,8.76923077 L8,8.76923077 L8,11.1538462 L10.3187393,11.1538462 L10.2450092,5.5503574 L7.10726514,3.22906713 L3.69503264,5.58513243 Z M1.7128679,6.95376998 L1.56819072,7.05366613 C1.11371731,7.3674692 0.490906167,7.25343336 0.177103099,6.79895995 C-0.136699969,6.34448654 -0.022664126,5.7216754 0.431809283,5.40787233 L7.14737677,0.770932874 L13.4408908,5.42684889 C13.8848838,5.75531306 13.9785384,6.38151327 13.6500742,6.82550622 C13.3249071,7.26504248 12.7079511,7.36123828 12.2648415,7.04445317 L12.3452283,13.1538462 L1.79444785,13.1538462 L1.7128679,6.95376998 Z" id="Combined-Shape"></path>
            </g>
            <path d="M12,23 C18.0751322,23 23,18.0751322 23,12 C23,5.92486775 18.0751322,1 12,1 C5.92486775,1 1,5.92486775 1,12 C1,18.0751322 5.92486775,23 12,23 Z M12,24 C5.372583,24 0,18.627417 0,12 C0,5.372583 5.372583,0 12,0 C18.627417,0 24,5.372583 24,12 C24,18.627417 18.627417,24 12,24 Z" id="Oval" fill="#FFFFFF" fill-rule="nonzero"></path>
        </g>
    </g>
</svg>