<?xml version="1.0" encoding="UTF-8"?>
<svg width="24px" height="24px" viewBox="0 0 24 24" version="1.1" xmlns="http://www.w3.org/2000/svg" xmlns:xlink="http://www.w3.org/1999/xlink">
    <!-- Generator: Sketch 48.2 (47327) - http://www.bohemiancoding.com/sketch -->
    <title>cartografia/pozo</title>
    <desc>Created with Sketch.</desc>
    <defs></defs>
    <g id="Symbols" stroke="none" stroke-width="1" fill="none" fill-rule="evenodd">
        <g id="cartografia/pozo">
            <circle id="Oval-8" fill="#0F82E0" cx="12" cy="12" r="11"></circle>
            <g id="icons/negative/pozo" transform="translate(2.000000, 2.000000)" fill="#FFFFFF">
                <path d="M12.498,14.801 C11.726,14.801 11.311,14.535 10.977,14.322 C10.686,14.135 10.475,14 9.996,14 C9.518,14 9.308,14.135 9.017,14.322 C8.683,14.535 8.269,14.801 7.498,14.801 C6.727,14.801 6.312,14.535 5.978,14.322 C5.688,14.135 5.477,14 5,14 L5,15.801 L15,15.801 L15,14 C14.521,14 14.31,14.135 14.019,14.322 C13.685,14.535 13.27,14.801 12.498,14.801" id="Fill-1"></path>
                <path d="M12.498,12.801 C11.726,12.801 11.311,12.535 10.977,12.322 C10.686,12.135 10.475,12 9.996,12 C9.518,12 9.308,12.135 9.017,12.322 C8.683,12.535 8.269,12.801 7.498,12.801 C6.727,12.801 6.312,12.535 5.978,12.322 C5.688,12.135 5.477,12 5,12 L5,13 C5.77,13 6.185,13.266 6.519,13.48 C6.81,13.666 7.019,13.801 7.498,13.801 C7.976,13.801 8.186,13.666 8.477,13.48 C8.81,13.266 9.225,13 9.996,13 C10.767,13 11.183,13.266 11.516,13.48 C11.808,13.666 12.019,13.801 12.498,13.801 C12.977,13.801 13.188,13.666 13.479,13.48 C13.813,13.266 14.228,13 15,13 L15,12 C14.521,12 14.31,12.135 14.019,12.322 C13.685,12.535 13.27,12.801 12.498,12.801" id="Fill-3"></path>
                <path d="M14.019,10.321 C13.686,10.535 13.27,10.8 12.498,10.8 C11.727,10.8 11.311,10.535 10.977,10.321 C10.686,10.134 10.475,10 9.996,10 C9.518,10 9.308,10.134 9.017,10.321 C8.684,10.535 8.269,10.8 7.498,10.8 C6.727,10.8 6.312,10.535 5.979,10.321 C5.688,10.134 5.478,10 5,10 L5,11.099 C5.771,11.099 6.186,11.365 6.519,11.579 C6.81,11.765 7.02,11.9 7.498,11.9 C7.976,11.9 8.186,11.765 8.477,11.579 C8.811,11.365 9.225,11.099 9.996,11.099 C10.768,11.099 11.183,11.365 11.517,11.579 C11.808,11.765 12.019,11.9 12.498,11.9 C12.977,11.9 13.188,11.765 13.48,11.579 C13.813,11.365 14.228,11.099 15,11.099 L15,10 C14.521,10 14.311,10.134 14.019,10.321" id="Fill-5"></path>
                <path d="M5,6 L3,6 L3,5 L5,5 L9,5 L9,9.293 C8.795,9.381 8.625,9.484 8.477,9.579 C8.186,9.766 7.976,9.9 7.498,9.9 C7.02,9.9 6.81,9.766 6.519,9.579 C6.185,9.365 5.771,9.1 5,9.1 L5,6 Z" id="Combined-Shape"></path>
                <path d="M15,5 L17,5 L17,6 L15,6 L15,9.1 C14.228,9.1 13.813,9.365 13.479,9.579 C13.188,9.766 12.977,9.9 12.498,9.9 C12.019,9.9 11.808,9.766 11.516,9.579 C11.37,9.485 11.201,9.384 11,9.297 L11,5 L15,5 Z" id="Combined-Shape"></path>
            </g>
            <path d="M12,23 C18.0751322,23 23,18.0751322 23,12 C23,5.92486775 18.0751322,1 12,1 C5.92486775,1 1,5.92486775 1,12 C1,18.0751322 5.92486775,23 12,23 Z M12,24 C5.372583,24 0,18.627417 0,12 C0,5.372583 5.372583,0 12,0 C18.627417,0 24,5.372583 24,12 C24,18.627417 18.627417,24 12,24 Z" id="Oval" fill="#FFFFFF" fill-rule="nonzero"></path>
        </g>
    </g>
</svg>