<?xml version="1.0" encoding="UTF-8"?>
<svg width="24px" height="24px" viewBox="0 0 24 24" version="1.1" xmlns="http://www.w3.org/2000/svg" xmlns:xlink="http://www.w3.org/1999/xlink">
    <!-- Generator: Sketch 48.2 (47327) - http://www.bohemiancoding.com/sketch -->
    <title>cartografia/publico</title>
    <desc>Created with Sketch.</desc>
    <defs></defs>
    <g id="Symbols" stroke="none" stroke-width="1" fill="none" fill-rule="evenodd">
        <g id="cartografia/publico">
            <circle id="Oval-3" fill="#E8BA4C" cx="12" cy="12" r="12"></circle>
            <path d="M7,10.952 L6.58749296,10.952 C6.43516909,10.952 6.29919711,10.9030423 6.17951174,10.8051268 C6.05982637,10.7072113 6,10.5821079 6,10.429784 C6,10.2557229 6.08704687,10.1142677 6.26110798,10.0054836 L6.29374648,9.97284507 L11.8422911,7.10065728 L11.8422911,4.26110798 C11.8422911,4.08704687 11.9402066,4 12.1360376,4 C12.3318685,4 12.429784,4.08704687 12.429784,4.26110798 L12.429784,4.39166197 C12.7343991,4.54398584 13.2294272,4.56572308 13.9148357,4.45693897 C14.6002441,4.34815485 15.1714178,4.38079335 15.6283568,4.55485446 L15.6283568,6.41524883 C15.149648,6.24118772 14.5784743,6.20854922 13.9148357,6.31733333 C13.2511971,6.42618272 12.756169,6.40441285 12.429784,6.25205634 L12.429784,7.10065728 L18.0109671,9.97284507 L18.0109671,10.0054836 C18.163291,10.1142024 18.2394366,10.2556577 18.2394366,10.429784 C18.2394366,10.5821079 18.1850282,10.7072113 18.0762441,10.8051268 C17.9675579,10.9030423 17.8261353,10.952 17.6519437,10.952 L17,10.952 L17,16.3203125 L15,16.3203125 L15,10.952 L13,10.952 L13,16.3203125 L11,16.3203125 L11,10.952 L9,10.952 L9,16.3203125 L7,16.3203125 L7,10.952 Z M6,17 L18,17 L18,19 L6,19 L6,17 Z" id="Combined-Shape" fill="#FFFFFF" fill-rule="nonzero"></path>
            <path d="M12,23 C18.0751322,23 23,18.0751322 23,12 C23,5.92486775 18.0751322,1 12,1 C5.92486775,1 1,5.92486775 1,12 C1,18.0751322 5.92486775,23 12,23 Z M12,24 C5.372583,24 0,18.627417 0,12 C0,5.372583 5.372583,0 12,0 C18.627417,0 24,5.372583 24,12 C24,18.627417 18.627417,24 12,24 Z" id="Oval" fill="#FFFFFF" fill-rule="nonzero"></path>
        </g>
    </g>
</svg>