<?xml version="1.0" encoding="UTF-8"?>
<svg width="24px" height="24px" viewBox="0 0 24 24" version="1.1" xmlns="http://www.w3.org/2000/svg" xmlns:xlink="http://www.w3.org/1999/xlink">
    <!-- Generator: Sketch 47.1 (45422) - http://www.bohemiancoding.com/sketch -->
    <title>cartografia/warning</title>
    <desc>Created with Sketch.</desc>
    <defs>
        <circle id="path-1" cx="12" cy="12" r="12"></circle>
        <filter x="-29.2%" y="-20.8%" width="158.3%" height="158.3%" filterUnits="objectBoundingBox" id="filter-2">
            <feOffset dx="0" dy="2" in="SourceAlpha" result="shadowOffsetOuter1"></feOffset>
            <feGaussianBlur stdDeviation="2" in="shadowOffsetOuter1" result="shadowBlurOuter1"></feGaussianBlur>
            <feComposite in="shadowBlurOuter1" in2="SourceAlpha" operator="out" result="shadowBlurOuter1"></feComposite>
            <feColorMatrix values="0 0 0 0 0   0 0 0 0 0   0 0 0 0 0  0 0 0 0.5 0" type="matrix" in="shadowBlurOuter1"></feColorMatrix>
        </filter>
    </defs>
    <g id="Symbols" stroke="none" stroke-width="1" fill="none" fill-rule="evenodd">
        <g id="cartografia/warning">
            <g id="Oval-3">
                <use fill="black" fill-opacity="1" filter="url(#filter-2)" xlink:href="#path-1"></use>
                <use fill="#F4455A" fill-rule="evenodd" xlink:href="#path-1"></use>
                <circle stroke="#F2F2F4" stroke-width="2" cx="12" cy="12" r="11"></circle>
            </g>
            <path d="M18.4600976,15.7765742 C18.7766669,16.3194694 18.3803119,17 17.7471733,17 L6.82424701,17 C6.19110849,17 5.79475349,16.3194694 6.11132274,15.7765742 L11.5727859,6.40717141 C11.8893552,5.8642762 12.6820652,5.8642762 12.9986344,6.40717141 L18.4600976,15.7765742 Z M12.0226539,9.14285714 L12.0226539,9.14285714 C11.7478005,9.14285714 11.5244804,9.36470688 11.5226648,9.63955428 L11.5226648,9.63955428 L11.5015889,12.8300305 C11.5015817,12.8311314 11.501578,12.8322324 11.501578,12.8333333 C11.501578,13.1094757 11.7254356,13.3333333 12.001578,13.3333333 L12.5712942,13.3333333 C12.8474365,13.3333333 13.0712942,13.1094757 13.0712942,12.8333333 L13.0712942,9.64285714 C13.0712942,9.36671477 12.8474365,9.14285714 12.5712942,9.14285714 L12.0226539,9.14285714 Z M12,13.8571429 C11.7238576,13.8571429 11.5,14.0810005 11.5,14.3571429 L11.5,14.9285714 C11.5,15.2047138 11.7238576,15.4285714 12,15.4285714 L12.5714286,15.4285714 C12.8475709,15.4285714 13.0714286,15.2047138 13.0714286,14.9285714 L13.0714286,14.3571429 C13.0714286,14.0810005 12.8475709,13.8571429 12.5714286,13.8571429 L12,13.8571429 Z" id="Combined-Shape-Copy" fill="#292D3A"></path>
        </g>
    </g>
</svg>