<?xml version="1.0" encoding="UTF-8"?>
<svg width="20px" height="20px" viewBox="0 0 20 20" version="1.1" xmlns="http://www.w3.org/2000/svg" xmlns:xlink="http://www.w3.org/1999/xlink">
    <!-- Generator: Sketch 49.3 (51167) - http://www.bohemiancoding.com/sketch -->
    <title>icons/color/warning-low</title>
    <desc>Created with Sketch.</desc>
    <defs></defs>
    <g id="icons/color/warning-low" stroke="none" stroke-width="1" fill="none" fill-rule="evenodd">
        <g id="Page-1" transform="translate(1.000000, 2.000000)" fill="#F8CA1C">
            <path d="M8,10 L10,10 L10,5 L8,5 L8,10 Z M8,13 L10,13 L10,11 L8,11 L8,13 Z M17.812,13.866 L10.311,0.738 C10.047,0.282 9.545,0 9,0 C8.455,0 7.954,0.282 7.689,0.738 L0.189,13.866 C-0.069,14.313 -0.063,14.852 0.207,15.293 C0.477,15.73 0.969,16 1.5,16 L16.501,16 C17.032,16 17.524,15.73 17.793,15.293 C18.062,14.852 18.069,14.313 17.812,13.866 Z" id="Fill-1"></path>
        </g>
    </g>
</svg>