<?xml version="1.0" encoding="UTF-8"?>
<svg width="153px" height="23px" viewBox="0 0 153 23" version="1.1" xmlns="http://www.w3.org/2000/svg" xmlns:xlink="http://www.w3.org/1999/xlink">
    <!-- Generator: Sketch 49.1 (51147) - http://www.bohemiancoding.com/sketch -->
    <title>logo/aquagis</title>
    <desc>Created with Sketch.</desc>
    <defs></defs>
    <g id="logo/aquagis" stroke="none" stroke-width="1" fill="none" fill-rule="evenodd">
        <path d="M11.154,0.33 L18.48,18.48 L14.036,18.48 L12.694,14.85 L5.786,14.85 L4.444,18.48 L0,18.48 L7.326,0.33 L11.154,0.33 Z M11.286,11.22 L9.262,5.94 L9.218,5.94 L7.194,11.22 L11.286,11.22 Z M30.606,22.286 L29.616,20.79 C29.6600002,20.731333 29.7186663,20.6580004 29.792,20.57 C29.8653337,20.4819996 30.0193322,20.3170012 30.254,20.075 C30.4886678,19.8329988 30.7159989,19.6203342 30.936,19.437 C31.1560011,19.2536657 31.4126652,19.0886674 31.706,18.942 C31.9993348,18.7953326 32.2706654,18.722 32.52,18.722 L32.52,18.634 C30.378656,18.2233313 28.6516732,17.1673418 27.339,15.466 C26.0263268,13.7646582 25.37,11.7406784 25.37,9.394 C25.37,6.7539868 26.2499912,4.52834239 28.01,2.717 C29.7700088,0.90565761 31.9039875,-2.84217094e-14 34.412,0 C36.9346793,-2.84217094e-14 39.0686579,0.90565761 40.814,2.717 C42.5593421,4.52834239 43.432,6.7539868 43.432,9.394 C43.432,11.5500108 42.8526725,13.4493251 41.694,15.092 C40.5353275,16.7346749 39.0100095,17.8419971 37.118,18.414 L37.118,18.502 C37.2060004,18.502 37.5946632,18.571666 38.284,18.711 C38.9733368,18.850334 39.5233313,18.92 39.934,18.92 C40.4913361,18.92 40.9973311,18.821001 41.452,18.623 C41.9066689,18.424999 42.2219991,18.2306676 42.398,18.04 L42.662,17.732 L43.96,20.526 C43.9306665,20.5993337 43.8830003,20.6909994 43.817,20.801 C43.7509997,20.9110005 43.6006678,21.1053319 43.366,21.384 C43.1313322,21.6626681 42.8710014,21.9119989 42.585,22.132 C42.2989986,22.3520011 41.9176691,22.5499991 41.441,22.726 C40.9643309,22.9020009 40.4546694,22.99 39.912,22.99 C39.0173289,22.99 37.9246731,22.7040029 36.634,22.132 C35.3433269,21.5599971 34.2286714,21.274 33.29,21.274 C32.7766641,21.274 32.2963356,21.3583325 31.849,21.527 C31.4016644,21.6956675 31.0826676,21.8679991 30.892,22.044 L30.606,22.286 Z M29.836,9.394 C29.836,10.0980035 29.9166659,10.7543303 30.078,11.363 C30.2393341,11.9716697 30.4923316,12.5253308 30.837,13.024 C31.1816684,13.5226692 31.6583303,13.9149986 32.267,14.201 C32.8756697,14.4870014 33.5906626,14.63 34.412,14.63 C35.9520077,14.63 37.0959963,14.1313383 37.844,13.134 C38.5920037,12.1366617 38.966,10.8900075 38.966,9.394 C38.966,7.91265926 38.5846705,6.66967169 37.822,5.665 C37.0593295,4.66032831 35.9226742,4.158 34.412,4.158 C32.9159925,4.158 31.7793372,4.66399494 31.002,5.676 C30.2246628,6.68800506 29.836,7.927326 29.836,9.394 Z M66.206,0.33 L66.206,12.034 C66.206,14.2633445 65.6046727,15.9499943 64.402,17.094 C63.1993273,18.2380057 61.4393449,18.81 59.122,18.81 C56.8046551,18.81 55.0446727,18.2380057 53.842,17.094 C52.6393273,15.9499943 52.038,14.2633445 52.038,12.034 L52.038,0.33 L56.174,0.33 L56.174,10.824 C56.174,12.290674 56.4049977,13.3099971 56.867,13.882 C57.3290023,14.4540029 58.0806615,14.74 59.122,14.74 C60.1633385,14.74 60.9149977,14.4540029 61.377,13.882 C61.8390023,13.3099971 62.07,12.290674 62.07,10.824 L62.07,0.33 L66.206,0.33 Z M84.844,0.33 L92.17,18.48 L87.726,18.48 L86.384,14.85 L79.476,14.85 L78.134,18.48 L73.69,18.48 L81.016,0.33 L84.844,0.33 Z M84.976,11.22 L82.952,5.94 L82.908,5.94 L80.884,11.22 L84.976,11.22 Z M106.122,0 C107.104672,-2.84217094e-14 108.065329,0.14299857 109.004,0.429 C109.942671,0.71500143 110.639331,0.99733194 111.094,1.276 L111.754,1.716 L110.082,5.016 C109.949999,4.92799956 109.766668,4.81433403 109.532,4.675 C109.297332,4.53566597 108.857337,4.34866784 108.212,4.114 C107.566663,3.87933216 106.965336,3.762 106.408,3.762 C105.718663,3.762 105.187002,3.9086652 104.813,4.202 C104.438998,4.4953348 104.252,4.89133084 104.252,5.39 C104.252,5.63933458 104.339999,5.87033227 104.516,6.083 C104.692001,6.29566773 104.992665,6.52299879 105.418,6.765 C105.843335,7.00700121 106.217332,7.2013326 106.54,7.348 C106.862668,7.4946674 107.36133,7.7146652 108.036,8.008 C109.209339,8.50666916 110.210329,9.18499571 111.039,10.043 C111.867671,10.9010043 112.282,11.8726612 112.282,12.958 C112.282,13.9993385 112.095002,14.9086628 111.721,15.686 C111.346998,16.4633372 110.83367,17.0719978 110.181,17.512 C109.52833,17.9520022 108.806004,18.2783323 108.014,18.491 C107.221996,18.7036677 106.364005,18.81 105.44,18.81 C104.647996,18.81 103.87067,18.7293341 103.108,18.568 C102.34533,18.4066659 101.707336,18.2050012 101.194,17.963 C100.680664,17.7209988 100.218669,17.4826678 99.808,17.248 C99.3973313,17.0133322 99.0966676,16.8153341 98.906,16.654 L98.62,16.412 L100.688,12.936 C100.864001,13.0826674 101.105998,13.2696655 101.414,13.497 C101.722002,13.7243345 102.268329,14.0286648 103.053,14.41 C103.837671,14.7913352 104.530664,14.982 105.132,14.982 C106.877342,14.982 107.75,14.3880059 107.75,13.2 C107.75,12.9506654 107.687667,12.7196677 107.563,12.507 C107.438333,12.2943323 107.218335,12.0816677 106.903,11.869 C106.587665,11.6563323 106.309001,11.4876673 106.067,11.363 C105.824999,11.2383327 105.429003,11.0476679 104.879,10.791 C104.328997,10.534332 103.922001,10.3400007 103.658,10.208 C102.557994,9.66533062 101.707336,8.98700407 101.106,8.173 C100.504664,7.35899593 100.204,6.48267136 100.204,5.544 C100.204,3.91599186 100.805327,2.58500517 102.008,1.551 C103.210673,0.51699483 104.581992,-2.84217094e-14 106.122,0 Z M125.354,0.33 L125.354,18.48 L121.218,18.48 L121.218,0.33 L125.354,0.33 Z M151.406,8.316 L151.406,12.254 C150.936664,14.4100108 149.910008,16.0416611 148.326,17.149 C146.741992,18.2563389 144.974676,18.81 143.024,18.81 C140.574654,18.81 138.488342,17.8933425 136.765,16.06 C135.041658,14.2266575 134.18,12.012013 134.18,9.416 C134.18,6.7759868 135.023325,4.54667576 136.71,2.728 C138.396675,0.90932424 140.501321,-2.84217094e-14 143.024,0 C145.972015,-2.84217094e-14 148.303991,1.03398966 150.02,3.102 L147.314,6.072 C146.345995,4.51732556 144.996675,3.74 143.266,3.74 C141.989994,3.74 140.901005,4.29366113 139.999,5.401 C139.096995,6.50833887 138.646,7.84665882 138.646,9.416 C138.646,10.9560077 139.096995,12.2723279 139.999,13.365 C140.901005,14.4576721 141.989994,15.004 143.266,15.004 C144.322005,15.004 145.242329,14.6850032 146.027,14.047 C146.811671,13.4089968 147.204,12.5620053 147.204,11.506 L143.024,11.506 L143.024,8.316 L151.406,8.316 Z" id="AQUASIG" fill="#FFFFFF"></path>
    </g>
</svg>