<?xml version="1.0" encoding="UTF-8"?>
<svg width="20px" height="20px" viewBox="0 0 20 20" version="1.1" xmlns="http://www.w3.org/2000/svg" xmlns:xlink="http://www.w3.org/1999/xlink">
    <!-- Generator: Sketch 47.1 (45422) - http://www.bohemiancoding.com/sketch -->
    <title>icons/negative/sensor-tuberia</title>
    <desc>Created with Sketch.</desc>
    <defs></defs>
    <g id="Symbols" stroke="none" stroke-width="1" fill="none" fill-rule="evenodd">
        <g id="icons/negative/sensor-tuberia" fill="#FFFFFF">
            <g id="Group-2" transform="translate(9.000000, 3.000000)">
                <path d="M8,4 L8,2.999 C7.232,2.999 6.464,2.706 5.879,2.121 C5.294,1.536 5.001,0.768 5.001,0 L4,0 C4,1.024 4.39,2.047 5.172,2.828 C5.953,3.609 6.976,4 8,4" id="Fill-1"></path>
                <path d="M8,8 L8,6.997 C6.207,6.997 4.415,6.314 3.05,4.95 C1.686,3.585 1.003,1.793 1.003,0 L0,0 C0,2.047 0.781,4.095 2.343,5.657 C3.905,7.219 5.953,8 8,8" id="Fill-3"></path>
                <path d="M8,6 L8,4.998 C6.72,4.998 5.439,4.51 4.465,3.536 C3.49,2.561 3.002,1.28 3.002,0 L2,0 C2,1.536 2.586,3.071 3.757,4.243 C4.929,5.414 6.464,6 8,6" id="Fill-5"></path>
            </g>
            <g id="Group" transform="translate(3.000000, 7.000000)">
                <path d="M7.69230769,8.84615385 L4.41153846,8.84615385 C2.61538462,8.84615385 1.15384615,7.38538462 1.15384615,5.58923077 L1.15384615,2.30769231 L3.46153846,2.30769231 L3.46153846,5.58923077 C3.46153846,6.11230769 3.88769231,6.53846154 4.41153846,6.53846154 L7.69230769,6.53846154 L7.69230769,8.84615385 Z" id="Fill-7"></path>
                <path d="M3.84615385,0 L0.769230769,0 C0.344615385,0 0,0.344615385 0,0.769230769 L0,0.769230769 C0,1.19384615 0.344615385,1.53846154 0.769230769,1.53846154 L3.84615385,1.53846154 C4.27076923,1.53846154 4.61538462,1.19384615 4.61538462,0.769230769 L4.61538462,0.769230769 C4.61538462,0.344615385 4.27076923,0 3.84615385,0" id="Fill-9"></path>
                <path d="M10,9.23076923 L10,6.15384615 C10,5.72923077 9.65538462,5.38461538 9.23076923,5.38461538 L9.23076923,5.38461538 C8.80615385,5.38461538 8.46153846,5.72923077 8.46153846,6.15384615 L8.46153846,9.23076923 C8.46153846,9.65538462 8.80615385,10 9.23076923,10 L9.23076923,10 C9.65538462,10 10,9.65538462 10,9.23076923" id="Fill-11"></path>
            </g>
        </g>
    </g>
</svg>