<?xml version="1.0" standalone="no"?>
<!DOCTYPE svg PUBLIC "-//W3C//DTD SVG 20010904//EN"
 "http://www.w3.org/TR/2001/REC-SVG-20010904/DTD/svg10.dtd">
<svg version="1.0" xmlns="http://www.w3.org/2000/svg"
 width="700.000000pt" height="700.000000pt" viewBox="0 0 700.000000 700.000000"
 preserveAspectRatio="xMidYMid meet">
<metadata>
Created by potrace 1.11, written by Peter Selinger 2001-2013
</metadata>
<g transform="translate(0.000000,700.000000) scale(0.100000,-0.100000)"
fill="#000000" stroke="none">
<path d="M305 6986 c-148 -37 -262 -155 -294 -304 -16 -76 -16 -6288 0 -6364
33 -153 154 -274 307 -307 76 -16 6288 -16 6364 0 153 33 274 154 307 307 16
76 16 6288 0 6364 -33 153 -154 274 -307 307 -80 17 -6308 14 -6377 -3z m4389
-3454 c429 -1082 786 -1982 793 -2000 l13 -32 -482 2 -482 3 -144 398 -145
397 -747 0 -747 0 -145 -397 -144 -398 -482 -3 -482 -2 13 32 c7 18 364 918
793 2000 l779 1968 415 0 415 0 779 -1968z"/>
<path d="M3281 3693 c-118 -313 -216 -574 -219 -580 -3 -10 88 -13 438 -13
350 0 441 3 438 13 -136 367 -434 1147 -438 1147 -3 0 -102 -255 -219 -567z"/>
</g>
</svg>
