<?xml version="1.0" encoding="UTF-8"?>
<svg width="20px" height="20px" viewBox="0 0 20 20" version="1.1" xmlns="http://www.w3.org/2000/svg" xmlns:xlink="http://www.w3.org/1999/xlink">
    <!-- Generator: Sketch 49.3 (51167) - http://www.bohemiancoding.com/sketch -->
    <title>icons/accent/speak</title>
    <desc>Created with Sketch.</desc>
    <defs></defs>
    <g id="icons/accent/speak" stroke="none" stroke-width="1" fill="none" fill-rule="evenodd">
        <circle id="Oval" fill="#64B6D9" cx="10" cy="10" r="8"></circle>
        <g id="Group-21" transform="translate(5.000000, 5.000000)" fill="#FFFFFF">
            <path d="M6.66666667,9.30955556 C6.66666667,9.49955556 6.59177778,9.67622222 6.45555556,9.80666667 C6.32733333,9.92955556 6.15266667,10 5.97622222,10 C5.85466667,10 5.734,9.96688889 5.62711111,9.904 C5.61311111,9.89577778 5.60022222,9.886 5.58844444,9.87488889 L2.64555556,7.13533333 C2.61244444,7.11933333 2.57622222,7.11111111 2.53933333,7.11111111 L0.689555556,7.11111111 C0.309333333,7.11111111 0,6.80155556 0,6.42133333 L0,3.57866667 C0,3.19844444 0.309333333,2.88888889 0.689777778,2.88888889 L2.53955556,2.88888889 C2.57644444,2.88888889 2.61266667,2.88066667 2.64577778,2.86466667 L5.58844444,0.125111111 C5.60022222,0.114 5.61311111,0.104222222 5.62711111,0.096 C5.734,0.0331111111 5.85466667,0 5.97622222,0 C6.35688889,0 6.66666667,0.309777778 6.66666667,0.690444444 L6.66666667,9.30955556 Z" id="Path"></path>
        </g>
        <path d="M13.25,12.4499909 C14.3911202,12.2183558 15.25,11.209479 15.25,10 C15.25,8.79052104 14.3911202,7.78164422 13.25,7.55000906 L13.25,12.4499909 Z" id="Oval-13" stroke="#FFFFFF"></path>
    </g>
</svg>