<?xml version="1.0" encoding="UTF-8"?>
<svg width="24px" height="24px" viewBox="0 0 24 24" version="1.1" xmlns="http://www.w3.org/2000/svg" xmlns:xlink="http://www.w3.org/1999/xlink">
    <!-- Generator: Sketch 48.2 (47327) - http://www.bohemiancoding.com/sketch -->
    <title>cartografia/comercial</title>
    <desc>Created with Sketch.</desc>
    <defs></defs>
    <g id="Symbols" stroke="none" stroke-width="1" fill="none" fill-rule="evenodd">
        <g id="cartografia/comercial">
            <circle id="Oval-3" fill="#96C147" cx="12" cy="12" r="11"></circle>
            <g id="Group" transform="translate(5.000000, 6.000000)" fill="#FFFFFF">
                <path d="M10,9.57142857 L12,9.57142857 L10,11.5714286 L10,9.57142857 Z M10,9.57142857 L10,3.42857143 L12,3.42857143 L12,11.5714286 L1.71428571,11.5714286 L1.71428571,3.42857143 L3.71428571,3.42857143 L3.71428571,9.57142857 L10,9.57142857 Z M3.71428571,11.5714286 L1.71428571,9.57142857 L3.71428571,9.57142857 L3.71428571,11.5714286 Z M1.71428571,9.57142857 L3.71428571,11.5714286 L3.71428571,9.57142857 L1.71428571,9.57142857 Z M3.71428571,9.57142857 L10,9.57142857 L10,3.42857143 L12,3.42857143 L12,11.5714286 L1.71428571,11.5714286 L1.71428571,3.42857143 L3.71428571,3.42857143 L3.71428571,9.57142857 Z M10,9.57142857 L12,9.57142857 L10,11.5714286 L10,9.57142857 Z M8,10.8571429 L6,10.8571429 L6,7 L8,7 L8,10.8571429 Z" id="Combined-Shape" fill-rule="nonzero"></path>
                <path d="M0,1.71428571 L1.71428571,0 L12,0 L13.7142857,1.71428571 L13.7142857,4.28571429 C13.7142857,4.75910121 13.3305298,5.14285714 12.8571429,5.14285714 C12.3837559,5.14285714 12,4.75910121 12,4.28571429 C12,4.75910121 11.6162441,5.14285714 11.1428571,5.14285714 C10.6694702,5.14285714 10.2857143,4.75910121 10.2857143,4.28571429 C10.2857143,4.75910121 9.90195836,5.14285714 9.42857143,5.14285714 C8.9551845,5.14285714 8.57142857,4.75910121 8.57142857,4.28571429 C8.57142857,4.75910121 8.18767264,5.14285714 7.71428571,5.14285714 C7.24089879,5.14285714 6.85714286,4.75910121 6.85714286,4.28571429 C6.85714286,4.75910121 6.47338693,5.14285714 6,5.14285714 C5.52661307,5.14285714 5.14285714,4.75910121 5.14285714,4.28571429 C5.14285714,4.75910121 4.75910121,5.14285714 4.28571429,5.14285714 C3.81232736,5.14285714 3.42857143,4.75910121 3.42857143,4.28571429 C3.42857143,4.75910121 3.0448155,5.14285714 2.57142857,5.14285714 C2.09804164,5.14285714 1.71428571,4.75910121 1.71428571,4.28571429 C1.71428571,4.75910121 1.33052979,5.14285714 0.857142857,5.14285714 C0.383755929,5.14285714 5.79731787e-17,4.75910121 0,4.28571429 L0,1.71428571 Z" id="Combined-Shape-Copy"></path>
            </g>
            <path d="M12,23 C18.0751322,23 23,18.0751322 23,12 C23,5.92486775 18.0751322,1 12,1 C5.92486775,1 1,5.92486775 1,12 C1,18.0751322 5.92486775,23 12,23 Z M12,24 C5.372583,24 0,18.627417 0,12 C0,5.372583 5.372583,0 12,0 C18.627417,0 24,5.372583 24,12 C24,18.627417 18.627417,24 12,24 Z" id="Oval" fill="#FFFFFF" fill-rule="nonzero"></path>
        </g>
    </g>
</svg>