<?xml version="1.0" encoding="UTF-8"?>
<svg width="46px" height="46px" viewBox="0 0 46 46" version="1.1" xmlns="http://www.w3.org/2000/svg" xmlns:xlink="http://www.w3.org/1999/xlink">
    <!-- Generator: Sketch 49.3 (51167) - http://www.bohemiancoding.com/sketch -->
    <title>icons/verticales/escenarios-futuros</title>
    <desc>Created with Sketch.</desc>
    <defs>
        <path d="M18.626,20.2268 C17.902,21.4818 18.333,23.0878 19.588,23.8128 L26.407,27.7508 C26.819,27.9888 27.271,28.1018 27.717,28.1018 C28.625,28.1018 29.507,27.6328 29.993,26.7898 C30.717,25.5348 30.29,23.9278 29.032,23.2038 L22.212,19.2658 C21.799,19.0268 21.349,18.9128 20.903,18.9128 C19.997,18.9128 19.114,19.3838 18.626,20.2268 Z" id="path-1"></path>
    </defs>
    <g id="icons/verticales/escenarios-futuros" stroke="none" stroke-width="1" fill="none" fill-rule="evenodd">
        <g id="Page-1" transform="translate(2.000000, 2.000000)">
            <path d="M16.165,41.3618 C15.949,41.3618 15.729,41.3338 15.511,41.2748 C6.378,38.8078 0,30.4698 0,20.9998 C0,9.4208 9.421,-0.0002 21,-0.0002 C32.579,-0.0002 42,9.4208 42,20.9998 C42,23.5638 41.543,26.0688 40.641,28.4448 C40.15,29.7358 38.707,30.3828 37.417,29.8948 C36.126,29.4048 35.477,27.9618 35.967,26.6708 C36.652,24.8628 37,22.9558 37,20.9998 C37,12.1778 29.822,4.9998 21,4.9998 C12.178,4.9998 5,12.1778 5,20.9998 C5,28.2158 9.858,34.5688 16.815,36.4478 C18.148,36.8078 18.936,38.1808 18.576,39.5128 C18.275,40.6278 17.267,41.3618 16.165,41.3618" id="Fill-12" fill="#FFFFFF"></path>
            <polygon id="Fill-1" fill="#FFFFFF" points="29.9997 35.2221 25.7297 32.6111 20.9997 29.6821 20.9997 35.5401 20.9997 41.3991 25.7707 38.4691 29.9997 35.8611 29.9997 41.3991 35.6707 38.4691 40.8457 35.5401 35.7047 32.6111 29.9997 29.6821"></polygon>
            <path d="M20.9007,24.1646 C19.4487,24.1646 18.2757,22.9886 18.2757,21.5396 L18.2757,11.0396 C18.2757,9.5906 19.4487,8.4146 20.9007,8.4146 C22.3527,8.4146 23.5257,9.5906 23.5257,11.0396 L23.5257,21.5396 C23.5257,22.9886 22.3527,24.1646 20.9007,24.1646" id="Fill-2" fill="#FFFFFF"></path>
            <path d="M27.717,28.1021 C27.271,28.1021 26.819,27.9891 26.407,27.7501 L19.587,23.8131 C18.333,23.0881 17.902,21.4821 18.627,20.2271 C19.354,18.9701 20.96,18.5391 22.212,19.2661 L29.032,23.2041 C30.289,23.9281 30.717,25.5351 29.993,26.7901 C29.507,27.6321 28.625,28.1021 27.717,28.1021" id="Fill-7" fill="#FFFFFF"></path>
            <mask id="mask-2" fill="white">
                <use xlink:href="#path-1"></use>
            </mask>
            <g id="Clip-10"></g>
        </g>
    </g>
</svg>