<?xml version="1.0" encoding="UTF-8"?>
<svg width="20px" height="20px" viewBox="0 0 20 20" version="1.1" xmlns="http://www.w3.org/2000/svg" xmlns:xlink="http://www.w3.org/1999/xlink">
    <!-- Generator: Sketch 47.1 (45422) - http://www.bohemiancoding.com/sketch -->
    <title>icons/negative/deposito</title>
    <desc>Created with Sketch.</desc>
    <defs></defs>
    <g id="Symbols" stroke="none" stroke-width="1" fill="none" fill-rule="evenodd">
        <g id="icons/negative/deposito" fill="#FFFFFF">
            <g id="Page-1" transform="translate(6.000000, 3.000000)">
                <path d="M6.222125,10.8885 L4.375,11.8125 L2.527875,10.8885 L2.625,10.5 L6.125,10.5 L6.222125,10.8885 Z M5.25,12.25 L6.416375,11.666375 L6.74975,12.999875 L5.25,12.25 Z M2.00025,12.999875 L2.333625,11.666375 L3.5,12.25 L2.00025,12.999875 Z M3.0625,6.78125 C3.29525,6.199375 3.509625,5.6105 3.745875,5.028625 C3.93925,4.5535 4.151,4.0845 4.3645,3.591 C4.391625,3.6295 4.403875,3.642625 4.410875,3.65925 C4.535125,3.922625 4.671625,4.181625 4.780125,4.451125 C5.0785,5.19225 5.369,5.936 5.65425,6.6815 C5.71375,6.83725 5.772375,7.00525 5.775,7.167125 C5.78375,7.6685 5.642,8.12 5.233375,8.449 C4.802,8.796375 4.221875,8.841875 3.7205,8.588125 C3.098375,8.273125 2.8175,7.392875 3.0625,6.78125 L3.0625,6.78125 Z M8.75,4.375 L8.75,3.5 L7.875,3.5 L4.375,0 L0.875,3.5 L0,3.5 L0,4.375 L0.875,4.375 L0.875,9.625 L0,9.625 L0,10.5 L0.875,10.5 L1.75,10.5 L0.875,14 L1.75,14 L4.375,12.6875 L7,14 L7.875,14 L7,10.5 L7.875,10.5 L8.75,10.5 L8.75,9.625 L7.875,9.625 L7.875,4.375 L8.75,4.375 Z" id="Fill-1"></path>
            </g>
        </g>
    </g>
</svg>