<?xml version="1.0" encoding="UTF-8" standalone="no"?>
<svg
   xmlns:dc="http://purl.org/dc/elements/1.1/"
   xmlns:cc="http://creativecommons.org/ns#"
   xmlns:rdf="http://www.w3.org/1999/02/22-rdf-syntax-ns#"
   xmlns:svg="http://www.w3.org/2000/svg"
   xmlns="http://www.w3.org/2000/svg"
   xmlns:sodipodi="http://sodipodi.sourceforge.net/DTD/sodipodi-0.dtd"
   xmlns:inkscape="http://www.inkscape.org/namespaces/inkscape"
   height="8.4666mm"
   style="shape-rendering:geometricPrecision; text-rendering:geometricPrecision; image-rendering:optimizeQuality; fill-rule:evenodd; clip-rule:evenodd"
   version="1.1"
   viewBox="0 0 847 847"
   width="8.4666mm"
   xml:space="preserve"
   id="svg3826"
   sodipodi:docname="iconfinder_43_3039930.svg"
   inkscape:version="0.92.3 (2405546, 2018-03-11)"><metadata
     id="metadata3830"><rdf:RDF><cc:Work
         rdf:about=""><dc:format>image/svg+xml</dc:format><dc:type
           rdf:resource="http://purl.org/dc/dcmitype/StillImage" /><dc:title></dc:title></cc:Work></rdf:RDF></metadata><sodipodi:namedview
     pagecolor="#ffffff"
     bordercolor="#666666"
     borderopacity="1"
     objecttolerance="10"
     gridtolerance="10"
     guidetolerance="10"
     inkscape:pageopacity="0"
     inkscape:pageshadow="2"
     inkscape:window-width="1920"
     inkscape:window-height="1080"
     id="namedview3828"
     showgrid="false"
     inkscape:zoom="26.062704"
     inkscape:cx="8.6138415"
     inkscape:cy="15.999875"
     inkscape:window-x="0"
     inkscape:window-y="0"
     inkscape:window-maximized="1"
     inkscape:current-layer="Layer_x0020_1" /><defs
     id="defs3821"><style
       type="text/css"
       id="style3819">
   <![CDATA[
    .fil0 {fill:black;fill-rule:nonzero;fill-opacity:0.501961}
   ]]>
  </style></defs><g
     id="Layer_x0020_1"><path
       class="fil0"
       d="M618 242l104 0c9,0 17,8 17,17l0 20c0,9 -8,17 -17,17l-104 0c-9,0 -17,-8 -17,-17l0 -20c0,-9 8,-17 17,-17zm-429 -54l0 -109c0,-10 4,-19 10,-25 7,-7 16,-11 25,-11l398 0c10,0 19,4 25,11 7,6 11,15 11,25l0 109 112 0c10,0 18,4 25,10 6,6 10,15 10,25l0 363c0,9 -4,18 -10,24 -7,7 -15,11 -25,11l-116 0 0 147c0,10 -4,19 -10,25 -6,6 -15,10 -25,10l-391 0c-10,0 -19,-4 -25,-10 -7,-6 -11,-15 -11,-25l0 -147 -115 0c-10,0 -19,-4 -25,-11 -7,-6 -11,-15 -11,-24l0 -363c0,-10 4,-19 11,-25 6,-6 15,-10 25,-10l112 0zm34 -109l0 109 401 0 0 -109c0,0 0,-1 -1,-1 0,-1 0,-1 -1,-1l-398 0c0,0 0,0 -1,1 0,0 0,1 0,1zm78 534c-9,0 -16,-7 -16,-16 0,-10 7,-17 16,-17l244 0c10,0 17,7 17,17 0,9 -7,16 -17,16l-244 0zm0 98c-9,0 -16,-7 -16,-17 0,-9 7,-17 16,-17l244 0c10,0 17,8 17,17 0,10 -7,17 -17,17l-244 0zm391 -189l-38 0 0 65 116 0c0,0 1,0 1,-1 0,0 1,0 1,0l0 -363c0,-1 -1,-1 -1,-1 0,0 -1,-1 -1,-1l-693 0c-1,0 -1,1 -2,1 0,0 0,0 0,1l0 363c0,0 0,0 0,0 1,1 1,1 2,1l115 0 0 -65 -37 0 0 -34 537 0 0 34zm-72 246l0 -246 -394 0 0 246c0,1 0,1 0,1 1,0 1,0 2,0l391 0c1,0 1,0 1,0 0,0 0,0 0,-1z"
       id="path3823"
       style="fill:#ffffff;fill-opacity:1" /></g></svg>