<?xml version="1.0" encoding="UTF-8"?>
<svg width="46px" height="46px" viewBox="0 0 46 46" version="1.1" xmlns="http://www.w3.org/2000/svg" xmlns:xlink="http://www.w3.org/1999/xlink">
    <!-- Generator: Sketch 47.1 (45422) - http://www.bohemiancoding.com/sketch -->
    <title>icons/verticales/ahorro energetico</title>
    <desc>Created with Sketch.</desc>
    <defs></defs>
    <g id="Symbols" stroke="none" stroke-width="1" fill="none" fill-rule="evenodd">
        <g id="icons/verticales/ahorro-energetico" fill="#FFFFFF">
            <g id="Page-1" transform="translate(1.000000, 1.000000)">
                <path d="M2.5,20 C3.88125,20 5,21.11875 5,22.5 C5,23.88 3.88125,25 2.5,25 C1.1175,25 0,23.88 0,22.5 C0,21.11875 1.1175,20 2.5,20" id="Fill-1"></path>
                <path d="M4.24890571,29.3377704 C5.44504973,28.6422042 6.97366429,29.0567966 7.66360316,30.2518717 C8.35479192,31.4469468 7.94732802,32.9741953 6.74868422,33.6647663 C5.5525402,34.3553374 4.02392564,33.9444913 3.33648655,32.7494163 C2.64529779,31.5543412 3.05276169,30.0283415 4.24890571,29.3377704" id="Fill-3"></path>
                <path d="M10.3355419,37.2514479 C11.0237805,36.0507025 12.5501462,35.6458727 13.7480061,36.3368323 C14.9433679,37.0265424 15.3568106,38.5546503 14.6635758,39.7503978 C13.9703409,40.9461452 12.4427261,41.355973 11.2523606,40.6625144 C10.0545007,39.9753032 9.64480517,38.4471954 10.3355419,37.2514479" id="Fill-5"></path>
                <path d="M25,41.5 C25,42.88125 23.88,44 22.5,44 C21.11875,44 20,42.88125 20,41.5 C20,40.11875 21.11875,39 22.5,39 C23.88,39 25,40.11875 25,41.5" id="Fill-7"></path>
                <path d="M41.5,25 C40.11875,25 39,23.88125 39,22.5 C39,21.12 40.11875,20 41.5,20 C42.88125,20 44,21.12 44,22.5 C44,23.88125 42.88125,25 41.5,25" id="Fill-9"></path>
                <path d="M39.7510943,14.6622296 C38.5549503,15.3577958 37.0263357,14.9432034 36.3363968,13.7481283 C35.6452081,12.5530532 36.052672,11.0258047 37.2513158,10.3352337 C38.4474598,9.6446626 39.9760744,10.0555087 40.6635134,11.2505837 C41.3547022,12.4456588 40.9472383,13.9716585 39.7510943,14.6622296" id="Fill-11"></path>
                <path d="M33.6644581,6.74855207 C32.9762195,7.94929747 31.4498538,8.35412734 30.2519939,7.66316771 C29.0566321,6.97345756 28.6431894,5.44534974 29.3364242,4.24960225 C30.0296591,3.05385476 31.5572739,2.64402699 32.7476394,3.33748556 C33.9454993,4.02469676 34.3551948,5.55280458 33.6644581,6.74855207" id="Fill-13"></path>
                <path d="M20,2.5 C20,1.11875 21.11875,0 22.5,0 C23.88,0 25,1.11875 25,2.5 C25,3.88125 23.88,5 22.5,5 C21.11875,5 20,3.88125 20,2.5" id="Fill-15"></path>
                <path d="M14.6622296,4.24890571 C15.3577958,5.44504973 14.9432034,6.97366429 13.7481283,7.66360316 C12.5530532,8.35479192 11.0258047,7.94732802 10.3352337,6.74868422 C9.6446626,5.5525402 10.0555087,4.02392564 11.2505837,3.33648655 C12.4456588,2.64529779 13.9716585,3.05276169 14.6622296,4.24890571" id="Fill-17"></path>
                <path d="M6.74855207,10.3355419 C7.94929747,11.0237805 8.35412734,12.5501462 7.66316771,13.7480061 C6.97345756,14.9433679 5.44534974,15.3568106 4.24960225,14.6635758 C3.05385476,13.9703409 2.64402699,12.4427261 3.33748556,11.2523606 C4.02469676,10.0545007 5.55280458,9.64480517 6.74855207,10.3355419" id="Fill-19"></path>
                <path d="M29.3377074,39.7510943 C28.6421791,38.5549503 29.0567489,37.0263357 30.2530076,36.3363968 C31.4480176,35.6452081 32.9739342,36.052672 33.6644677,37.2513158 C34.3550011,38.4474598 33.9454261,39.9760744 32.7504162,40.6635134 C31.5541575,41.3547022 30.0282409,40.9472383 29.3377074,39.7510943" id="Fill-21"></path>
                <path d="M37.2514479,33.6644581 C36.0507025,32.9762195 35.6458727,31.4498538 36.3368323,30.2519939 C37.0265424,29.0566321 38.5546503,28.6431894 39.7503978,29.3364242 C40.9461452,30.0296591 41.355973,31.5572739 40.6625144,32.7476394 C39.9753032,33.9454993 38.4471954,34.3551948 37.2514479,33.6644581" id="Fill-23"></path>
                <path d="M22.5009824,23.9166667 L15,23.9166667 L22.5018755,7 L22.5027685,19.0833333 L30,19.0833333 L22.5018755,36 L22.5009824,23.9166667 Z" id="Combined-Shape"></path>
            </g>
        </g>
    </g>
</svg>