<?xml version="1.0" encoding="UTF-8"?>
<svg width="46px" height="46px" viewBox="0 0 46 46" version="1.1" xmlns="http://www.w3.org/2000/svg" xmlns:xlink="http://www.w3.org/1999/xlink">
    <!-- Generator: Sketch 47.1 (45422) - http://www.bohemiancoding.com/sketch -->
    <title>icons/verticales/mantenimiento</title>
    <desc>Created with Sketch.</desc>
    <defs></defs>
    <g id="Symbols" stroke="none" stroke-width="1" fill="none" fill-rule="evenodd">
        <g id="icons/verticales/mantenimiento" fill-rule="nonzero" fill="#FFFFFF">
            <path d="M43.1573019,9.70913439 L37.0673362,15.7991001 C36.5111011,16.3553352 35.6099916,16.3553352 35.0536134,15.7991001 L30.200473,10.9459597 C29.6442379,10.3897246 29.6442379,9.48832895 30.200473,8.93238006 L36.2904387,2.84255744 C32.4317098,1.52445057 27.9888411,2.40380859 24.9113027,5.48149012 C21.6973886,8.69511796 20.8812814,13.3968571 22.460119,17.3679206 L15.968897,23.8588564 C12.351437,22.559782 8.14998032,23.3572861 5.25217723,26.2553753 C1.25006075,30.2573487 1.25034695,36.7458518 5.25217723,40.7473959 C9.25343511,44.7490831 15.7419382,44.7493693 19.7440547,40.7473959 C22.642144,37.8491635 23.4397911,33.6475637 22.1407167,30.0301037 L28.6316525,23.5391679 C32.602716,25.1178624 37.3045983,24.3018983 40.5183692,21.0882705 C43.5959076,18.0108751 44.4754088,13.5681495 43.1573019,9.70913439 Z M16.5312854,37.5344835 L11.0215958,39.0108606 L6.98871256,34.9781204 L8.46523267,29.4685739 L13.9746361,27.9920538 L18.0078056,32.0249371 L16.5312854,37.5344835 Z" id="Shape"></path>
        </g>
    </g>
</svg>