<?xml version="1.0" encoding="UTF-8"?>
<svg width="46px" height="46px" viewBox="0 0 46 46" version="1.1" xmlns="http://www.w3.org/2000/svg" xmlns:xlink="http://www.w3.org/1999/xlink">
    <!-- Generator: Sketch 47.1 (45422) - http://www.bohemiancoding.com/sketch -->
    <title>icons/verticales/patrones</title>
    <desc>Created with Sketch.</desc>
    <defs></defs>
    <g id="Symbols" stroke="none" stroke-width="1" fill="none" fill-rule="evenodd">
        <g id="icons/verticales/patrones" fill="#FFFFFF">
            <path d="M14.2106,4 C13.8086,4.197 13.3616,4.338 13.0076,4.605 C11.6616,5.608 11.8306,7.812 13.2786,8.677 C14.2386,9.248 15.5646,9.138 16.3796,8.246 C16.4966,8.119 16.7216,8.027 16.8976,8.025 C19.0016,8.011 21.1086,8.021 23.2136,8.011 C23.4456,8.009 23.6136,8.072 23.7676,8.241 C23.8796,8.364 24.0256,8.456 24.1466,8.571 C24.2066,8.626 24.2816,8.702 24.2836,8.769 C24.2936,9.284 24.2886,9.8 24.2886,10.355 L23.9156,10.355 C22.9956,10.355 22.0756,10.353 21.1556,10.356 C20.2146,10.362 19.6696,10.882 19.6406,11.815 C19.6186,12.545 19.6016,13.276 19.6106,14.007 C19.6146,14.289 19.5256,14.358 19.2486,14.358 C16.6246,14.349 14.0006,14.356 11.3766,14.351 C10.1386,14.347 8.9546,14.567 7.8696,15.183 C5.9666,16.265 4.9036,17.87 4.8886,20.099 C4.8766,21.517 4.8826,22.935 4.8896,24.353 C4.8906,24.543 4.8346,24.659 4.6646,24.756 C4.1316,25.068 3.9126,25.58 4.0316,26.186 C4.1416,26.743 4.5776,27.155 5.1586,27.243 C5.2726,27.262 5.3896,27.266 5.5066,27.266 L13.6946,27.266 C14.3366,27.266 14.8226,27.014 15.0846,26.407 C15.3066,25.896 15.1636,25.309 14.7536,24.928 C14.6856,24.864 14.5916,24.75 14.6076,24.682 C14.7286,24.185 14.8196,23.666 15.0256,23.202 C15.2196,22.765 15.6486,22.54 16.1376,22.532 C17.3646,22.511 18.5916,22.536 19.8186,22.487 C20.3236,22.468 20.5696,22.649 20.8206,23.077 C21.7506,24.657 23.1326,25.585 24.9796,25.788 C25.8336,25.885 26.6686,25.821 27.4776,25.528 C28.7406,25.073 29.5816,24.142 30.2006,22.999 C30.4016,22.624 30.6156,22.487 31.0496,22.489 C34.4876,22.509 37.9266,22.501 41.3646,22.501 L41.8016,22.501 L41.8016,14.355 L41.4056,14.355 C38.2736,14.355 35.1416,14.351 32.0106,14.361 C31.7086,14.363 31.6076,14.287 31.6166,13.976 C31.6406,13.31 31.5946,12.642 31.6316,11.976 C31.6936,10.835 30.8676,10.32 30.0156,10.347 C29.0646,10.38 28.1126,10.355 27.1586,10.355 L26.7806,10.355 C26.7806,9.806 26.7776,9.293 26.7866,8.777 C26.7866,8.716 26.8426,8.642 26.8926,8.597 C27.0706,8.433 27.2496,8.269 27.4446,8.126 C27.5306,8.063 27.6526,8.021 27.7566,8.021 C30.1706,8.015 32.5836,8.013 34.9936,8.025 C35.1316,8.025 35.3056,8.115 35.3966,8.222 C36.6426,9.64 39.0676,9.152 39.6266,7.183 C39.9656,5.986 39.2826,4.619 38.1116,4.188 C37.9336,4.125 37.7546,4.063 37.5756,4 L36.8136,4 C36.2376,4.213 35.6786,4.445 35.2886,4.961 C35.2326,5.035 35.0846,5.068 34.9796,5.07 C32.5716,5.076 30.1636,5.074 27.7546,5.07 C27.6576,5.07 27.5186,5.05 27.4676,4.984 C27.0796,4.472 26.5256,4.228 25.9566,4 L25.1296,4 C24.5476,4.226 23.9866,4.48 23.5886,4.996 C23.5436,5.056 23.4186,5.07 23.3296,5.07 C21.1546,5.074 18.9806,5.074 16.8076,5.068 C16.7036,5.068 16.5596,5.029 16.5016,4.955 C16.1066,4.445 15.5516,4.205 14.9716,4 L14.2106,4 Z" id="Fill-1"></path>
            <path d="M9.6735,28.791 C9.0555,30.221 8.4405,31.578 7.8805,32.957 C7.1975,34.641 6.5755,36.348 5.9015,38.033 C5.1915,39.805 6.0055,42.355 7.8075,43.27 C9.2595,44.005 10.9405,43.873 12.1905,42.865 C13.3735,41.912 13.7855,40.605 13.7605,39.152 C13.7525,38.682 13.5835,38.195 13.4105,37.744 C12.5825,35.584 11.7425,33.43 10.8785,31.283 C10.5635,30.502 10.1685,29.752 9.8085,28.988 C9.7875,28.941 9.7525,28.902 9.6735,28.791" id="Fill-4"></path>
        </g>
    </g>
</svg>