<?xml version="1.0" encoding="UTF-8"?>
<svg width="20px" height="20px" viewBox="0 0 20 20" version="1.1" xmlns="http://www.w3.org/2000/svg" xmlns:xlink="http://www.w3.org/1999/xlink">
    <!-- Generator: Sketch 49.3 (51167) - http://www.bohemiancoding.com/sketch -->
    <title>icons/bad/arrow-raise-down</title>
    <desc>Created with Sketch.</desc>
    <defs></defs>
    <g id="icons/bad/arrow-raise-down" stroke="none" stroke-width="1" fill="none" fill-rule="evenodd">
        <path d="M10.75841,10.885937 L14.619436,15.3454453 C14.9809366,15.7629806 14.9355114,16.3945141 14.5179761,16.7560146 C14.3362147,16.913383 14.1038418,17 13.8634214,17 L6.14110753,17 C5.58882278,17 5.14110753,16.5522847 5.14110753,16 C5.14110753,15.759568 5.22773286,15.5271848 5.38511486,15.3454199 L9.2464027,10.8859116 C9.6079173,10.4683884 10.2394522,10.4229844 10.6569755,10.784499 C10.6931718,10.8158398 10.7270705,10.8497396 10.75841,10.885937 Z" id="Rectangle-11" fill="#FB4C62" transform="translate(10.000000, 14.000000) rotate(-540.000000) translate(-10.000000, -14.000000) "></path>
        <path d="M10.75841,2.88593697 L14.619436,7.34544529 C14.9809366,7.76298065 14.9355114,8.39451406 14.5179761,8.75601464 C14.3362147,8.91338298 14.1038418,9 13.8634214,9 L6.14110753,9 C5.58882278,9 5.14110753,8.55228475 5.14110753,8 C5.14110753,7.75956799 5.22773286,7.52718476 5.38511486,7.34541992 L9.2464027,2.8859116 C9.6079173,2.46838837 10.2394522,2.42298441 10.6569755,2.784499 C10.6931718,2.81583976 10.7270705,2.84973961 10.75841,2.88593697 Z" id="Rectangle-11" fill="#FB4C62" transform="translate(10.000000, 6.000000) rotate(-540.000000) translate(-10.000000, -6.000000) "></path>
    </g>
</svg>