<?xml version="1.0" encoding="UTF-8"?>
<svg width="20px" height="20px" viewBox="0 0 20 20" version="1.1" xmlns="http://www.w3.org/2000/svg" xmlns:xlink="http://www.w3.org/1999/xlink">
    <!-- Generator: Sketch 47.1 (45422) - http://www.bohemiancoding.com/sketch -->
    <title>icons/accent/ambitos</title>
    <desc>Created with Sketch.</desc>
    <defs></defs>
    <g id="Symbols" stroke="none" stroke-width="1" fill="none" fill-rule="evenodd">
        <g id="icons/accent/ambitos" fill="#64B6D9">
            <g id="Page-1" transform="translate(2.000000, 2.000000)">
                <polygon id="Fill-1" points="14.0004 8.0004 14.0004 9.0004 15.0004 9.0004 15.0004 11.0004 14.0004 11.0004 14.0004 12.0014 15.0004 12.0014 15.0004 14.0004 14.0004 14.0004 14.0004 16.0004 16.0004 16.0004 16.0004 8.0004"></polygon>
                <polygon id="Fill-2" points="0 6.0006 0 16.0006 2 16.0006 2 14.0006 1 14.0006 1 12.0006 2 12.0006 2 10.9996 1 10.9996 1 9.0006 2 9.0006 2 8.0006 1 8.0006 1 6.7806 2 6.5316 2 5.5006"></polygon>
                <path d="M8.0001,0.0003 L3.0001,2.0003 L3.0001,4.0013 L3.0001,5.2513 L3.0001,6.2813 L3.0001,8.0003 L3.0001,9.0003 L3.0001,11.0003 L3.0001,12.0013 L3.0001,14.0003 L3.0001,16.0003 L12.9991,16.0003 L12.9991,14.0003 L12.9991,12.0013 L12.9991,11.0003 L12.9991,9.0003 L12.9991,8.0003 L12.9991,7.0003 L12.9991,2.0003 L8.0001,0.0003 Z M10.0001,5.0013 L12.0001,5.0013 L12.0001,3.0013 L10.0001,3.0013 L10.0001,5.0013 Z M7.0001,5.0013 L9.0001,5.0013 L9.0001,3.0013 L7.0001,3.0013 L7.0001,5.0013 Z M3.9991,5.0013 L6.0001,5.0013 L6.0001,3.0013 L3.9991,3.0013 L3.9991,5.0013 Z M10.0001,8.0003 L12.0001,8.0003 L12.0001,6.0003 L10.0001,6.0003 L10.0001,8.0003 Z M7.0001,8.0003 L9.0001,8.0003 L9.0001,6.0003 L7.0001,6.0003 L7.0001,8.0003 Z M3.9991,8.0003 L6.0001,8.0003 L6.0001,6.0003 L3.9991,6.0003 L3.9991,8.0003 Z M10.0001,11.0003 L12.0001,11.0003 L12.0001,9.0003 L10.0001,9.0003 L10.0001,11.0003 Z M7.0001,11.0003 L9.0001,11.0003 L9.0001,9.0003 L7.0001,9.0003 L7.0001,11.0003 Z M3.9991,11.0003 L6.0001,11.0003 L6.0001,9.0003 L3.9991,9.0003 L3.9991,11.0003 Z M10.0001,14.0013 L12.0001,14.0013 L12.0001,12.0013 L10.0001,12.0013 L10.0001,14.0013 Z M7.0001,14.0013 L9.0001,14.0013 L9.0001,12.0013 L7.0001,12.0013 L7.0001,14.0013 Z M3.9991,14.0013 L6.0001,14.0013 L6.0001,12.0013 L3.9991,12.0013 L3.9991,14.0013 Z" id="Fill-3"></path>
            </g>
        </g>
    </g>
</svg>