<?xml version="1.0" encoding="UTF-8"?>
<svg width="20px" height="20px" viewBox="0 0 20 20" version="1.1" xmlns="http://www.w3.org/2000/svg" xmlns:xlink="http://www.w3.org/1999/xlink">
    <!-- Generator: Sketch 47.1 (45422) - http://www.bohemiancoding.com/sketch -->
    <title>icons/accent/config</title>
    <desc>Created with Sketch.</desc>
    <defs></defs>
    <g id="Symbols" stroke="none" stroke-width="1" fill="none" fill-rule="evenodd">
        <g id="icons/accent/config" fill="#64B6D9">
            <path d="M10,11.875 C8.965,11.875 8.125,11.035 8.125,10 C8.125,8.964 8.965,8.125 10,8.125 C11.036,8.125 11.875,8.964 11.875,10 C11.875,11.035 11.036,11.875 10,11.875 L10,11.875 Z M15.33,9.062 L15.33,9.065 C14.626,9.065 14.047,8.501 14.047,7.794 C14.047,7.439 14.193,7.118 14.428,6.884 L14.896,6.414 L13.589,5.103 L13.114,5.575 C12.883,5.806 12.561,5.951 12.208,5.951 C11.503,5.951 10.937,5.376 10.937,4.67 L10.937,4.001 L9.062,4.001 L9.062,4.67 C9.062,5.376 8.502,5.951 7.793,5.951 C7.438,5.951 7.118,5.806 6.886,5.575 L6.886,5.573 L6.416,5.103 L5.104,6.414 L5.576,6.884 C5.809,7.118 5.953,7.439 5.953,7.794 C5.953,8.501 5.381,9.065 4.67,9.065 L4,9.062 L4,10.938 L4.67,10.938 C5.381,10.938 5.953,11.504 5.953,12.211 C5.953,12.566 5.809,12.887 5.576,13.12 L5.104,13.588 L6.416,14.9 L6.886,14.428 C7.118,14.196 7.438,14.052 7.793,14.052 C8.502,14.052 9.062,14.627 9.062,15.336 L9.062,15.999 L10.937,15.999 L10.937,15.336 C10.937,14.627 11.503,14.052 12.208,14.052 C12.561,14.052 12.883,14.196 13.114,14.428 L13.589,14.9 L14.896,13.588 L14.428,13.117 L14.428,13.119 C14.191,12.887 14.047,12.565 14.047,12.211 C14.047,11.504 14.626,10.938 15.33,10.938 L16,10.938 L16,9.062 L15.33,9.062 Z" id="Page-1"></path>
        </g>
    </g>
</svg>