<?xml version="1.0" encoding="UTF-8"?>
<svg width="20px" height="20px" viewBox="0 0 20 20" version="1.1" xmlns="http://www.w3.org/2000/svg" xmlns:xlink="http://www.w3.org/1999/xlink">
    <!-- Generator: Sketch 47.1 (45422) - http://www.bohemiancoding.com/sketch -->
    <title>icons/accent/info</title>
    <desc>Created with Sketch.</desc>
    <defs></defs>
    <g id="Symbols" stroke="none" stroke-width="1" fill="none" fill-rule="evenodd">
        <g id="icons/accent/info" fill="#64B6D9">
            <path d="M12,15 L11,15 L9,15 L8,15 L8,14 L9,14 L9,10 L8,10 L8,9 L9,9 L11,9 L11,10 L11,14 L12,14 L12,15 Z M10,4.5 C10.829,4.5 11.5,5.172 11.5,6 C11.5,6.828 10.829,7.5 10,7.5 C9.171,7.5 8.5,6.828 8.5,6 C8.5,5.172 9.171,4.5 10,4.5 L10,4.5 Z M10,2 C5.582,2 2,5.582 2,10 C2,14.418 5.582,18 10,18 C14.418,18 18,14.418 18,10 C18,5.582 14.418,2 10,2 L10,2 Z" id="Page-1"></path>
        </g>
    </g>
</svg>