<?xml version="1.0" encoding="UTF-8"?>
<svg width="24px" height="24px" viewBox="0 0 24 24" version="1.1" xmlns="http://www.w3.org/2000/svg" xmlns:xlink="http://www.w3.org/1999/xlink">
    <!-- Generator: Sketch 47.1 (45422) - http://www.bohemiancoding.com/sketch -->
    <title>icons/disabled/setup</title>
    <desc>Created with Sketch.</desc>
    <defs>
        <path d="M3,3.26756439 L3,1 C3,0.44771525 2.55228475,-1.01453063e-16 2,0 L2,0 L2,0 C1.44771525,1.01453063e-16 1,0.44771525 1,1 L1,1 L1,3.26756439 C1.29417337,3.09739429 1.63571286,3 2,3 C2.36428714,3 2.70582663,3.09739429 3,3.26756439 Z M3,6.73243561 L3,13 C3,13.5522847 2.55228475,14 2,14 C1.44771525,14 1,13.5522847 1,13 L1,6.73243561 C1.29417337,6.90260571 1.63571286,7 2,7 C2.36428714,7 2.70582663,6.90260571 3,6.73243561 Z" id="path-1"></path>
        <path d="M3,3.26756439 L3,1 C3,0.44771525 2.55228475,-1.01453063e-16 2,0 L2,0 L2,0 C1.44771525,1.01453063e-16 1,0.44771525 1,1 L1,1 L1,3.26756439 C1.29417337,3.09739429 1.63571286,3 2,3 C2.36428714,3 2.70582663,3.09739429 3,3.26756439 Z M3,6.73243561 L3,13 C3,13.5522847 2.55228475,14 2,14 C1.44771525,14 1,13.5522847 1,13 L1,6.73243561 C1.29417337,6.90260571 1.63571286,7 2,7 C2.36428714,7 2.70582663,6.90260571 3,6.73243561 Z" id="path-2"></path>
        <path d="M3,3.26756439 L3,1 C3,0.44771525 2.55228475,-1.01453063e-16 2,0 L2,0 L2,0 C1.44771525,1.01453063e-16 1,0.44771525 1,1 L1,1 L1,3.26756439 C1.29417337,3.09739429 1.63571286,3 2,3 C2.36428714,3 2.70582663,3.09739429 3,3.26756439 Z M3,6.73243561 L3,13 C3,13.5522847 2.55228475,14 2,14 C1.44771525,14 1,13.5522847 1,13 L1,6.73243561 C1.29417337,6.90260571 1.63571286,7 2,7 C2.36428714,7 2.70582663,6.90260571 3,6.73243561 Z" id="path-3"></path>
    </defs>
    <g id="Symbols" stroke="none" stroke-width="1" fill="none" fill-rule="evenodd">
        <g id="icons/disabled/setup">
            <g id="Group-2" transform="translate(5.000000, 5.000000)">
                <g id="Combined-Shape">
                    <use fill="#64B6D9" fill-rule="evenodd" xlink:href="#path-1"></use>
                    <path stroke="#64B6D9" stroke-width="1" d="M1.5,2.55010598 C1.23577427,2.60378839 0.982829437,2.69986693 0.749637022,2.83476146 L1,3.26756439 L1.5,3.26756439 L1.5,2.55010598 Z M2.5,2.55010598 L2.5,3.26756439 L3,3.26756439 L3.25036298,2.83476146 C3.01717056,2.69986693 2.76422573,2.60378839 2.5,2.55010598 Z M2.5,2.55010598 C2.33696488,2.51698234 2.16963484,2.5 2,2.5 C1.83036516,2.5 1.66303512,2.51698234 1.5,2.55010598 L1.5,1 C1.5,0.723857625 1.72385763,0.5 2,0.5 C2.27614237,0.5 2.5,0.723857625 2.5,1 L2.5,2.55010598 Z M2.5,7.44989402 C2.33696488,7.48301766 2.16963484,7.5 2,7.5 C1.83036516,7.5 1.66303512,7.48301766 1.5,7.44989402 L1.5,13 C1.5,13.2761424 1.72385763,13.5 2,13.5 C2.27614237,13.5 2.5,13.2761424 2.5,13 L2.5,7.44989402 Z"></path>
                </g>
                <circle id="Oval-3" stroke="#64B6D9" cx="2" cy="5" r="2"></circle>
            </g>
            <g id="Group-2-Copy" transform="translate(15.000000, 5.000000)">
                <g id="Combined-Shape">
                    <use fill="#64B6D9" fill-rule="evenodd" xlink:href="#path-2"></use>
                    <path stroke="#64B6D9" stroke-width="1" d="M1.5,2.55010598 C1.23577427,2.60378839 0.982829437,2.69986693 0.749637022,2.83476146 L1,3.26756439 L1.5,3.26756439 L1.5,2.55010598 Z M2.5,2.55010598 L2.5,3.26756439 L3,3.26756439 L3.25036298,2.83476146 C3.01717056,2.69986693 2.76422573,2.60378839 2.5,2.55010598 Z M2.5,2.55010598 C2.33696488,2.51698234 2.16963484,2.5 2,2.5 C1.83036516,2.5 1.66303512,2.51698234 1.5,2.55010598 L1.5,1 C1.5,0.723857625 1.72385763,0.5 2,0.5 C2.27614237,0.5 2.5,0.723857625 2.5,1 L2.5,2.55010598 Z M2.5,7.44989402 C2.33696488,7.48301766 2.16963484,7.5 2,7.5 C1.83036516,7.5 1.66303512,7.48301766 1.5,7.44989402 L1.5,13 C1.5,13.2761424 1.72385763,13.5 2,13.5 C2.27614237,13.5 2.5,13.2761424 2.5,13 L2.5,7.44989402 Z"></path>
                </g>
                <circle id="Oval-3" stroke="#64B6D9" cx="2" cy="5" r="2"></circle>
            </g>
            <g id="Group-2-Copy-2" transform="translate(12.000000, 12.000000) rotate(-180.000000) translate(-12.000000, -12.000000) translate(10.000000, 5.000000)">
                <g id="Combined-Shape">
                    <use fill="#64B6D9" fill-rule="evenodd" xlink:href="#path-3"></use>
                    <path stroke="#64B6D9" stroke-width="1" d="M1.5,2.55010598 C1.23577427,2.60378839 0.982829437,2.69986693 0.749637022,2.83476146 L1,3.26756439 L1.5,3.26756439 L1.5,2.55010598 Z M2.5,2.55010598 L2.5,3.26756439 L3,3.26756439 L3.25036298,2.83476146 C3.01717056,2.69986693 2.76422573,2.60378839 2.5,2.55010598 Z M2.5,2.55010598 C2.33696488,2.51698234 2.16963484,2.5 2,2.5 C1.83036516,2.5 1.66303512,2.51698234 1.5,2.55010598 L1.5,1 C1.5,0.723857625 1.72385763,0.5 2,0.5 C2.27614237,0.5 2.5,0.723857625 2.5,1 L2.5,2.55010598 Z M2.5,7.44989402 C2.33696488,7.48301766 2.16963484,7.5 2,7.5 C1.83036516,7.5 1.66303512,7.48301766 1.5,7.44989402 L1.5,13 C1.5,13.2761424 1.72385763,13.5 2,13.5 C2.27614237,13.5 2.5,13.2761424 2.5,13 L2.5,7.44989402 Z"></path>
                </g>
                <circle id="Oval-3" stroke="#64B6D9" cx="2" cy="5" r="2"></circle>
            </g>
        </g>
    </g>
</svg>