<?xml version="1.0" encoding="UTF-8"?>
<svg width="46px" height="46px" viewBox="0 0 46 46" version="1.1" xmlns="http://www.w3.org/2000/svg" xmlns:xlink="http://www.w3.org/1999/xlink">
    <!-- Generator: Sketch 47.1 (45422) - http://www.bohemiancoding.com/sketch -->
    <title>icons/verticales/fugas</title>
    <desc>Created with Sketch.</desc>
    <defs></defs>
    <g id="Symbols" stroke="none" stroke-width="1" fill="none" fill-rule="evenodd">
        <g id="icons/verticales/fugas" fill="#FFFFFF">
            <g id="Page-1" transform="translate(2.000000, 0.000000)">
                <path d="M1.81578947,12.1052632 L1.81578947,12.1052632 C2.81810526,12.1052632 3.63157895,11.2917895 3.63157895,10.2894737 L3.63157895,1.81578947 C3.63157895,0.813473684 2.81810526,0 1.81578947,0 L1.81578947,0 C0.813473684,0 0,0.813473684 0,1.81578947 L0,10.2894737 C0,11.2917895 0.813473684,12.1052632 1.81578947,12.1052632" id="Fill-1"></path>
                <path d="M39.3421053,12.1052632 L39.3421053,12.1052632 C40.3444211,12.1052632 41.1578947,11.2917895 41.1578947,10.2894737 L41.1578947,1.81578947 C41.1578947,0.813473684 40.3444211,0 39.3421053,0 C38.3397895,0 37.5263158,0.813473684 37.5263158,1.81578947 L37.5263158,10.2894737 C37.5263158,11.2917895 38.3397895,12.1052632 39.3421053,12.1052632" id="Fill-3"></path>
                <path d="M32.6842105,2.42105263 C27.3445789,2.42105263 23,6.76563158 23,12.1052632 L23,24.2105263 C23,25.5457368 21.9141579,26.6315789 20.5789474,26.6315789 C19.2437368,26.6315789 18.1578947,25.5457368 18.1578947,24.2105263 L18.1578947,12.1052632 C18.1578947,6.76563158 13.8133158,2.42105263 8.47368421,2.42105263 L4.84210526,2.42105263 L4.84210526,9.68421053 L8.47368421,9.68421053 C9.80889474,9.68421053 10.8947368,10.7700526 10.8947368,12.1052632 L10.8947368,24.2105263 C10.8947368,28.5224211 13.7297895,32.1830526 17.6325263,33.4323158 C18.2910526,32.3355789 18.9156842,31.3623158 19.366,30.6795789 L20.8815789,28.3795789 L22.3971579,30.6795789 C22.8232632,31.3235789 23.4043158,32.2290526 24.0216842,33.2507368 C27.6641579,31.8586316 30.2631579,28.3372105 30.2631579,24.2105263 L30.2631579,12.1052632 C30.2631579,10.7700526 31.349,9.68421053 32.6842105,9.68421053 L36.3157895,9.68421053 L36.3157895,2.42105263 L32.6842105,2.42105263 Z" id="Fill-5"></path>
                <path d="M20.7807421,32.0789474 C20.7807421,32.0789474 16.1407947,39.1181579 16.1407947,41.3503684 L16.1407947,41.3600526 L16.1407947,41.3806316 C16.1407947,43.7593158 18.2180579,46 20.7807421,46 C23.3434263,46 25.4206895,43.7593158 25.4206895,41.3806316 L25.4206895,41.3600526 L25.4206895,41.3503684 C25.4206895,39.1181579 20.7807421,32.0789474 20.7807421,32.0789474" id="Fill-7"></path>
            </g>
        </g>
    </g>
</svg>