<?xml version="1.0" encoding="UTF-8"?>
<svg width="20px" height="20px" viewBox="0 0 20 20" version="1.1" xmlns="http://www.w3.org/2000/svg" xmlns:xlink="http://www.w3.org/1999/xlink">
    <!-- Generator: Sketch 47.1 (45422) - http://www.bohemiancoding.com/sketch -->
    <title>icons/secondary/calendario</title>
    <desc>Created with Sketch.</desc>
    <defs></defs>
    <g id="Symbols" stroke="none" stroke-width="1" fill="none" fill-rule="evenodd">
        <g id="icons/secondary/calendario" fill="#165288">
            <path d="M5,2 C5.553,2 6,2.448 6,3 L6,3.999 L4,3.999 L4,3 C4,2.448 4.447,2 5,2 Z" id="Fill-1"></path>
            <path d="M15,2 C14.447,2 14,2.448 14,3 L14,3.999 L16,3.999 L16,3 C16,2.448 15.553,2 15,2" id="Fill-3"></path>
            <path d="M4,16 L16,16 L16,9 L4,9 L4,16 Z M17,4 L16,4 L16,5 C16,5.552 15.553,6 15,6 C14.447,6 14,5.552 14,5 L14,4 L6,4 L6,5 C6,5.552 5.553,6 5,6 C4.447,6 4,5.552 4,5 L4,4 L3,4 C2.447,4 2,4.448 2,5 L2,17 C2,17.552 2.447,18 3,18 L17,18 C17.553,18 18,17.552 18,17 L18,5 C18,4.448 17.553,4 17,4 L17,4 Z" id="Fill-5"></path>
            <polygon id="Fill-7" points="5 11.999 7 11.999 7 11 5 11"></polygon>
            <polygon id="Fill-8" points="13 14.999 15 14.999 15 14 13 14"></polygon>
        </g>
    </g>
</svg>