<?xml version="1.0" encoding="UTF-8"?>
<svg width="20px" height="20px" viewBox="0 0 20 20" version="1.1" xmlns="http://www.w3.org/2000/svg" xmlns:xlink="http://www.w3.org/1999/xlink">
    <!-- Generator: Sketch 47.1 (45422) - http://www.bohemiancoding.com/sketch -->
    <title>icons/secondary/mantenimiento</title>
    <desc>Created with Sketch.</desc>
    <defs></defs>
    <g id="Symbols" stroke="none" stroke-width="1" fill="none" fill-rule="evenodd">
        <g id="icons/secondary/mantenimiento" fill-rule="nonzero" fill="#165288">
            <g id="icons/verticales/mantenimiento" transform="translate(3.000000, 3.000000)">
                <path d="M13.799973,2.51651988 L11.7455037,4.5710073 C11.5578561,4.75865663 11.2538639,4.75865663 11.066168,4.5710073 L9.42894564,2.9337705 C9.24129796,2.74612117 9.24129796,2.4420298 9.42894564,2.25447702 L11.4834149,0.20003788 C10.1816605,-0.244633588 8.68284458,0.0520232539 7.64462722,1.09029806 C6.56040311,2.17443519 6.28508675,3.76059584 6.81771263,5.10025855 L4.62787827,7.2900157 C3.40751666,6.85176496 1.9901419,7.12080785 1.01255882,8.09849611 C-0.337567883,9.44858646 -0.337471332,11.6375229 1.01255882,12.9874684 C2.36239588,14.3374622 4.551313,14.3375588 5.9014397,12.9874684 C6.87911933,12.0097319 7.14820812,10.5922963 6.70996125,9.37192396 L8.89969906,7.18216682 C10.2393499,7.71474912 11.8255449,7.43947861 12.9097207,6.35534147 C13.947938,5.31716322 14.2446405,3.81838237 13.799973,2.51651988 Z M4.8176018,11.9035727 L2.95889052,12.4016376 L1.59838453,11.0411678 L2.09649328,9.18248841 L3.95510801,8.68437527 L5.31571055,10.0448933 L4.8176018,11.9035727 Z" id="Shape"></path>
            </g>
        </g>
    </g>
</svg>